<?xml version="1.0" encoding="utf-8"?>
<!-- Generator: Adobe Illustrator 16.0.0, SVG Export Plug-In . SVG Version: 6.00 Build 0)  -->
<!DOCTYPE svg PUBLIC "-//W3C//DTD SVG 1.1//EN" "http://www.w3.org/Graphics/SVG/1.1/DTD/svg11.dtd">
<svg version="1.1" id="Layer_1" xmlns="http://www.w3.org/2000/svg" xmlns:xlink="http://www.w3.org/1999/xlink" x="0px" y="0px"
	 width="100.982px" height="62.941px" viewBox="0 0 100.982 62.941" enable-background="new 0 0 100.982 62.941"
	 xml:space="preserve">
<g id="ucla_ece">
	<g>
		<path fill="#00588A" d="M36.429,4.176c0.01-0.062,0.049-0.082,0.112-0.058l28.03,10.202c0.068,0.035,0.102,0.08,0.102,0.137v6.296
			c0,0.066-0.03,0.088-0.102,0.063l-20.934-7.62v10.833l20.934,7.621c0.068,0.035,0.102,0.08,0.102,0.137v6.297
			c0,0.064-0.03,0.087-0.102,0.062L36.544,27.942c-0.078-0.026-0.112-0.073-0.112-0.143L36.429,4.176L36.429,4.176z"/>
		<path fill="#00588A" d="M66.333,14.456c0.015-0.07,0.051-0.118,0.117-0.144l28.03-10.2c0.063-0.013,0.1,0.01,0.1,0.062v6.298
			c0,0.065-0.033,0.111-0.1,0.136l-20.938,7.619v2.192L94.48,12.8c0.063-0.013,0.1,0.01,0.1,0.064v6.296
			c0,0.066-0.033,0.111-0.1,0.136l-20.938,7.62v2.145l20.938-7.62c0.063-0.015,0.1,0.009,0.1,0.063v6.295
			c0,0.067-0.033,0.112-0.1,0.139L66.451,38.14c-0.078,0.027-0.117,0.008-0.117-0.059L66.333,14.456L66.333,14.456z"/>
		<path fill="#00588A" d="M6.275,14.458c0.012-0.069,0.051-0.118,0.117-0.143L34.421,4.113c0.066-0.012,0.101,0.01,0.101,0.062
			v6.298c0,0.065-0.031,0.111-0.101,0.135l-20.935,7.62v2.192l20.935-7.62c0.066-0.013,0.101,0.009,0.101,0.064v6.297
			c0,0.065-0.031,0.11-0.101,0.135l-20.935,7.62v2.146l20.935-7.621c0.066-0.014,0.101,0.01,0.101,0.063v6.296
			c0,0.067-0.031,0.112-0.101,0.137L6.393,38.14c-0.079,0.027-0.117,0.01-0.117-0.058L6.275,14.458L6.275,14.458z"/>
	</g>
</g>
<g>
	<g>
		<path fill="#97ABB6" d="M5.631,56.593l4.301-5.05c1.091-1.278,1.652-2.4,1.652-3.397c0-1.745-0.779-2.649-2.369-2.649
			c-1.091,0-1.871,0.499-2.12,0.997c0.561,0.094,1.028,0.53,1.028,1.185s-0.561,1.185-1.215,1.185s-1.372-0.53-1.372-1.465
			c0-1.216,1.247-2.899,3.896-2.899c2.805,0,4.301,1.372,4.301,3.336c0,1.028-0.811,2.618-2.618,4.426l-3.304,3.336H12.8
			c0,0,0.437-1.092,0.437-2.183c0-0.218,0.187-0.468,0.499-0.468c0.343,0,0.499,0.25,0.499,0.468c0,0.405-0.343,1.652-0.343,3.117
			v0.562c0,0.343-0.218,0.561-0.467,0.561c-0.281,0-1.247-0.124-1.714-0.124l-5.767-0.031C5.381,57.497,5.257,57.029,5.631,56.593z"
			/>
		<path fill="#97ABB6" d="M20.343,57.746c-2.462,0-4.52-2.649-4.52-6.608c0-3.958,2.058-6.64,4.52-6.64
			c2.493,0,4.551,2.682,4.551,6.64C24.894,55.096,22.836,57.746,20.343,57.746z M20.343,45.527c-1.528,0-2.369,1.371-2.369,5.61
			s0.841,5.611,2.369,5.611c1.527,0,2.4-1.372,2.4-5.611S21.87,45.527,20.343,45.527z"/>
		<path fill="#97ABB6" d="M26.203,56.593l4.302-5.05c1.091-1.278,1.652-2.4,1.652-3.397c0-1.745-0.779-2.649-2.369-2.649
			c-1.091,0-1.871,0.499-2.12,0.997c0.561,0.094,1.028,0.53,1.028,1.185s-0.561,1.185-1.215,1.185c-0.655,0-1.372-0.53-1.372-1.465
			c0-1.216,1.247-2.899,3.896-2.899c2.805,0,4.301,1.372,4.301,3.336c0,1.028-0.811,2.618-2.618,4.426l-3.304,3.336h4.987
			c0,0,0.437-1.092,0.437-2.183c0-0.218,0.187-0.468,0.499-0.468c0.343,0,0.499,0.25,0.499,0.468c0,0.405-0.343,1.652-0.343,3.117
			v0.562c0,0.343-0.218,0.561-0.467,0.561c-0.281,0-1.247-0.124-1.714-0.124l-5.767-0.031
			C25.954,57.497,25.829,57.029,26.203,56.593z"/>
		<path fill="#97ABB6" d="M40.915,57.746c-2.462,0-4.52-2.649-4.52-6.608c0-3.958,2.057-6.64,4.52-6.64
			c2.494,0,4.551,2.682,4.551,6.64C45.467,55.096,43.409,57.746,40.915,57.746z M40.915,45.527c-1.527,0-2.369,1.371-2.369,5.61
			s0.841,5.611,2.369,5.611s2.4-1.372,2.4-5.611S42.443,45.527,40.915,45.527z"/>
		<path fill="#97ABB6" d="M56.407,50.763c0,0.437-0.28,0.717-0.592,0.717c-0.437,0-0.624-0.155-3.366-0.155H51.95
			c-2.712,0-2.93,0.155-3.335,0.155c-0.28,0-0.592-0.28-0.592-0.717s0.312-0.686,0.592-0.686c0.405,0,0.655,0.125,3.335,0.125h0.499
			c2.712,0,2.93-0.125,3.366-0.125C56.127,50.078,56.407,50.327,56.407,50.763z"/>
		<path fill="#97ABB6" d="M58.465,56.593l4.302-5.05c1.091-1.278,1.652-2.4,1.652-3.397c0-1.745-0.779-2.649-2.369-2.649
			c-1.091,0-1.87,0.499-2.12,0.997c0.562,0.094,1.029,0.53,1.029,1.185s-0.562,1.185-1.216,1.185c-0.655,0-1.372-0.53-1.372-1.465
			c0-1.216,1.247-2.899,3.896-2.899c2.806,0,4.302,1.372,4.302,3.336c0,1.028-0.811,2.618-2.618,4.426l-3.305,3.336h4.987
			c0,0,0.437-1.092,0.437-2.183c0-0.218,0.188-0.468,0.499-0.468c0.343,0,0.499,0.25,0.499,0.468c0,0.405-0.343,1.652-0.343,3.117
			v0.562c0,0.343-0.219,0.561-0.468,0.561c-0.28,0-1.247-0.124-1.715-0.124l-5.767-0.031C58.216,57.497,58.091,57.029,58.465,56.593
			z"/>
		<path fill="#97ABB6" d="M73.177,57.746c-2.463,0-4.52-2.649-4.52-6.608c0-3.958,2.057-6.64,4.52-6.64
			c2.493,0,4.551,2.682,4.551,6.64C77.728,55.096,75.671,57.746,73.177,57.746z M73.177,45.527c-1.527,0-2.369,1.371-2.369,5.61
			s0.842,5.611,2.369,5.611s2.399-1.372,2.399-5.611S74.705,45.527,73.177,45.527z"/>
		<path fill="#97ABB6" d="M79.038,56.593l4.301-5.05c1.091-1.278,1.652-2.4,1.652-3.397c0-1.745-0.779-2.649-2.369-2.649
			c-1.091,0-1.87,0.499-2.119,0.997c0.561,0.094,1.028,0.53,1.028,1.185s-0.561,1.185-1.216,1.185c-0.654,0-1.371-0.53-1.371-1.465
			c0-1.216,1.247-2.899,3.896-2.899c2.805,0,4.301,1.372,4.301,3.336c0,1.028-0.811,2.618-2.618,4.426l-3.304,3.336h4.987
			c0,0,0.437-1.092,0.437-2.183c0-0.218,0.187-0.468,0.498-0.468c0.343,0,0.499,0.25,0.499,0.468c0,0.405-0.343,1.652-0.343,3.117
			v0.562c0,0.343-0.218,0.561-0.468,0.561c-0.28,0-1.247-0.124-1.714-0.124l-5.767-0.031C78.788,57.497,78.664,57.029,79.038,56.593
			z"/>
		<path fill="#97ABB6" d="M95.495,56.499c0.219,0,0.468,0.219,0.468,0.562s-0.249,0.529-0.468,0.529
			c-0.312,0-0.498-0.155-3.055-0.155h-0.124c-2.525,0-2.712,0.155-3.023,0.155c-0.25,0-0.468-0.187-0.468-0.529
			s0.218-0.562,0.468-0.562c0.312,0,0.498,0.031,1.994,0.031V45.715c-1.496,0-2.088,0.093-2.399,0.093
			c-0.219,0-0.468-0.218-0.468-0.561c0-0.312,0.249-0.53,0.468-0.53c0.312,0,0.903,0.062,2.399,0.062
			c0.499,0,1.466-0.156,1.746-0.156c0.218,0,0.468,0.219,0.468,0.562c0,0.499,0,11.346,0,11.346
			C94.997,56.53,95.183,56.499,95.495,56.499z"/>
	</g>
</g>
</svg>
