<?xml version="1.0" encoding="utf-8"?>
<!-- Generator: Adobe Illustrator 16.0.0, SVG Export Plug-In . SVG Version: 6.00 Build 0)  -->
<!DOCTYPE svg PUBLIC "-//W3C//DTD SVG 1.1//EN" "http://www.w3.org/Graphics/SVG/1.1/DTD/svg11.dtd">
<svg version="1.1" id="Layer_1" xmlns="http://www.w3.org/2000/svg" xmlns:xlink="http://www.w3.org/1999/xlink" x="0px" y="0px"
	 width="100.982px" height="62.941px" viewBox="0 0 100.982 62.941" enable-background="new 0 0 100.982 62.941"
	 xml:space="preserve">
<g id="ECE_1_">
	<g id="ECE" display="none">
		<path display="inline" fill="#00588A" d="M36.429,4.176c0.01-0.062,0.049-0.082,0.109-0.058L64.57,14.32
			c0.068,0.035,0.102,0.08,0.102,0.137v6.296c0,0.066-0.027,0.088-0.102,0.063l-20.934-7.62v10.833L64.57,31.65
			c0.068,0.035,0.102,0.08,0.102,0.137v6.297c0,0.064-0.027,0.087-0.102,0.062L36.544,27.942c-0.078-0.026-0.109-0.073-0.109-0.146
			L36.429,4.176L36.429,4.176z"/>
		<path display="inline" fill="#00588A" d="M66.333,14.456c0.018-0.07,0.051-0.118,0.117-0.144l28.03-10.2
			c0.062-0.013,0.1,0.01,0.1,0.062v6.301c0,0.062-0.033,0.108-0.1,0.136l-20.938,7.619v2.189L94.48,12.8
			c0.062-0.013,0.1,0.013,0.1,0.064v6.296c0,0.066-0.033,0.111-0.1,0.136l-20.938,7.62v2.146l20.938-7.62
			c0.062-0.018,0.1,0.009,0.1,0.062v6.295c0,0.067-0.033,0.112-0.1,0.142l-28.029,10.2c-0.078,0.024-0.117,0.008-0.117-0.062
			L66.333,14.456L66.333,14.456z"/>
		<path display="inline" fill="#00588A" d="M6.275,14.458c0.012-0.066,0.051-0.118,0.117-0.143L34.421,4.113
			c0.066-0.012,0.104,0.01,0.104,0.062v6.301c0,0.062-0.031,0.108-0.104,0.135l-20.935,7.62v2.189l20.935-7.62
			c0.066-0.013,0.104,0.012,0.104,0.064v6.297c0,0.065-0.031,0.11-0.104,0.135l-20.935,7.62v2.146l20.935-7.621
			c0.066-0.017,0.104,0.01,0.104,0.062V27.8c0,0.067-0.031,0.112-0.104,0.14L6.393,38.14c-0.079,0.024-0.117,0.01-0.117-0.061
			L6.275,14.458L6.275,14.458z"/>
	</g>
	<g id="ECE_white">
		<path fill="#E2E9EC" d="M36.429,4.176c0.01-0.062,0.049-0.082,0.109-0.058L64.57,14.32c0.068,0.035,0.102,0.08,0.102,0.137v6.296
			c0,0.066-0.027,0.088-0.102,0.063l-20.934-7.62v10.833L64.57,31.65c0.068,0.035,0.102,0.08,0.102,0.137v6.297
			c0,0.064-0.027,0.087-0.102,0.062L36.544,27.942c-0.078-0.026-0.109-0.073-0.109-0.146L36.429,4.176L36.429,4.176z"/>
		<path fill="#E2E9EC" d="M66.333,14.456c0.018-0.07,0.051-0.118,0.117-0.144l28.03-10.2c0.062-0.013,0.1,0.01,0.1,0.062v6.301
			c0,0.062-0.033,0.108-0.1,0.136l-20.938,7.619v2.189L94.48,12.8c0.062-0.013,0.1,0.013,0.1,0.064v6.296
			c0,0.066-0.033,0.111-0.1,0.136l-20.938,7.62v2.146l20.938-7.62c0.062-0.018,0.1,0.009,0.1,0.062v6.295
			c0,0.067-0.033,0.112-0.1,0.142l-28.029,10.2c-0.078,0.024-0.117,0.008-0.117-0.062L66.333,14.456L66.333,14.456z"/>
		<path fill="#E2E9EC" d="M6.275,14.458c0.012-0.066,0.051-0.118,0.117-0.143L34.421,4.113c0.066-0.012,0.104,0.01,0.104,0.062
			v6.301c0,0.062-0.031,0.108-0.104,0.135l-20.935,7.62v2.189l20.935-7.62c0.066-0.013,0.104,0.012,0.104,0.064v6.297
			c0,0.065-0.031,0.11-0.104,0.135l-20.935,7.62v2.146l20.935-7.621c0.066-0.017,0.104,0.01,0.104,0.062V27.8
			c0,0.067-0.031,0.112-0.104,0.14L6.393,38.14c-0.079,0.024-0.117,0.01-0.117-0.061L6.275,14.458L6.275,14.458z"/>
	</g>
</g>
<g id="_x32_021-2022">
	<g>
		<path fill="#C0D0D7" d="M16.053,54.846H6.578c0.108-0.822,0.438-1.599,0.988-2.322c0.551-0.727,1.583-1.581,3.098-2.567
			c0.926-0.604,1.52-1.062,1.776-1.378c0.258-0.312,0.388-0.611,0.388-0.894c0-0.307-0.128-0.565-0.384-0.781
			c-0.255-0.216-0.577-0.323-0.965-0.323c-0.403,0-0.733,0.111-0.989,0.334c-0.256,0.225-0.428,0.616-0.516,1.18L6.811,47.87
			c0.124-0.782,0.351-1.393,0.682-1.832c0.331-0.438,0.797-0.773,1.399-1.009c0.602-0.235,1.436-0.354,2.501-0.354
			c1.109,0,1.977,0.111,2.593,0.334c0.618,0.225,1.104,0.565,1.458,1.026c0.354,0.462,0.532,0.979,0.532,1.552
			c0,0.609-0.203,1.191-0.609,1.746c-0.405,0.557-1.144,1.164-2.213,1.828c-0.636,0.387-1.062,0.657-1.276,0.812
			c-0.214,0.152-0.466,0.355-0.756,0.605h4.934L16.053,54.846L16.053,54.846z"/>
		<path fill="#C0D0D7" d="M17.323,49.806c0-1.9,0.389-3.23,1.167-3.99c0.778-0.759,1.963-1.141,3.555-1.141
			c0.767,0,1.396,0.083,1.887,0.249c0.488,0.166,0.891,0.384,1.2,0.647c0.312,0.267,0.556,0.546,0.732,0.839
			c0.179,0.294,0.322,0.636,0.431,1.027c0.212,0.745,0.318,1.521,0.318,2.332c0,1.812-0.35,3.143-1.047,3.981
			s-1.9,1.264-3.605,1.264c-0.957,0-1.729-0.136-2.317-0.402c-0.589-0.271-1.073-0.662-1.45-1.18
			c-0.274-0.368-0.488-0.872-0.642-1.513C17.4,51.285,17.323,50.58,17.323,49.806z M20.456,49.813c0,1.271,0.127,2.143,0.384,2.607
			c0.258,0.468,0.626,0.698,1.113,0.698c0.32,0,0.598-0.099,0.833-0.296c0.235-0.198,0.408-0.511,0.521-0.938
			c0.109-0.427,0.167-1.094,0.167-1.996c0-1.328-0.128-2.222-0.386-2.679c-0.255-0.457-0.639-0.686-1.149-0.686
			c-0.522,0-0.9,0.23-1.132,0.699C20.573,47.691,20.456,48.552,20.456,49.813z"/>
		<path fill="#C0D0D7" d="M37.079,54.846h-9.476c0.106-0.822,0.438-1.599,0.987-2.322c0.552-0.727,1.583-1.581,3.1-2.567
			c0.925-0.604,1.517-1.062,1.773-1.378c0.261-0.312,0.39-0.611,0.39-0.894c0-0.307-0.128-0.565-0.384-0.781
			c-0.258-0.216-0.578-0.323-0.968-0.323c-0.401,0-0.73,0.111-0.987,0.334c-0.257,0.225-0.429,0.616-0.517,1.18l-3.164-0.225
			c0.124-0.782,0.353-1.393,0.684-1.832c0.331-0.438,0.798-0.773,1.398-1.009c0.604-0.234,1.438-0.354,2.501-0.354
			c1.111,0,1.978,0.111,2.596,0.334c0.616,0.225,1.104,0.565,1.458,1.026C36.824,46.498,37,47.015,37,47.588
			c0,0.609-0.203,1.191-0.606,1.746c-0.406,0.557-1.146,1.164-2.214,1.828c-0.638,0.387-1.062,0.657-1.275,0.812
			c-0.214,0.152-0.466,0.355-0.756,0.605h4.932L37.079,54.846L37.079,54.846z"/>
		<path fill="#C0D0D7" d="M45.506,44.677v10.171h-3.192v-6.663c-0.519,0.346-1.019,0.625-1.5,0.839
			c-0.484,0.214-1.09,0.418-1.819,0.611v-2.275c1.076-0.307,1.911-0.671,2.505-1.101c0.594-0.427,1.062-0.952,1.396-1.582H45.506z"
			/>
		<path fill="#C0D0D7" d="M48.56,50.127h4.59v2.148h-4.59V50.127z"/>
		<path fill="#C0D0D7" d="M63.315,54.846H53.84c0.107-0.822,0.438-1.599,0.987-2.322c0.551-0.727,1.584-1.581,3.1-2.567
			c0.927-0.604,1.519-1.062,1.775-1.378c0.258-0.312,0.388-0.611,0.388-0.894c0-0.307-0.129-0.565-0.385-0.781
			c-0.257-0.216-0.576-0.323-0.964-0.323c-0.404,0-0.735,0.111-0.99,0.334c-0.256,0.225-0.429,0.616-0.516,1.18l-3.164-0.225
			c0.125-0.782,0.353-1.393,0.684-1.832c0.33-0.438,0.796-0.773,1.399-1.009c0.603-0.234,1.436-0.354,2.501-0.354
			c1.111,0,1.975,0.111,2.592,0.334c0.618,0.225,1.104,0.565,1.459,1.026c0.354,0.462,0.531,0.979,0.531,1.552
			c0,0.609-0.203,1.191-0.608,1.746c-0.405,0.557-1.144,1.164-2.213,1.828c-0.637,0.387-1.062,0.657-1.276,0.812
			c-0.216,0.152-0.467,0.355-0.756,0.605h4.934L63.315,54.846L63.315,54.846z"/>
		<path fill="#C0D0D7" d="M64.584,49.806c0-1.9,0.391-3.23,1.167-3.99c0.778-0.759,1.964-1.141,3.558-1.141
			c0.766,0,1.395,0.083,1.884,0.249c0.491,0.166,0.893,0.384,1.203,0.647c0.31,0.267,0.555,0.546,0.73,0.839
			c0.18,0.294,0.322,0.636,0.433,1.027c0.212,0.745,0.316,1.521,0.316,2.332c0,1.812-0.35,3.143-1.048,3.981
			c-0.697,0.841-1.897,1.264-3.604,1.264c-0.956,0-1.729-0.136-2.318-0.402c-0.589-0.271-1.072-0.662-1.45-1.18
			c-0.271-0.368-0.488-0.872-0.64-1.513C64.661,51.285,64.584,50.58,64.584,49.806z M67.718,49.813c0,1.271,0.13,2.143,0.385,2.607
			c0.257,0.468,0.628,0.698,1.111,0.698c0.32,0,0.601-0.099,0.834-0.296c0.235-0.198,0.407-0.511,0.521-0.938
			c0.11-0.427,0.167-1.094,0.167-1.996c0-1.328-0.128-2.222-0.385-2.679c-0.256-0.457-0.642-0.686-1.151-0.686
			c-0.521,0-0.899,0.23-1.132,0.699C67.835,47.691,67.718,48.552,67.718,49.813z"/>
		<path fill="#C0D0D7" d="M84.34,54.846h-9.476c0.108-0.822,0.438-1.599,0.988-2.322c0.551-0.727,1.583-1.581,3.098-2.567
			c0.926-0.604,1.519-1.062,1.775-1.378c0.259-0.312,0.389-0.611,0.389-0.894c0-0.307-0.128-0.565-0.385-0.781
			c-0.255-0.216-0.576-0.323-0.965-0.323c-0.402,0-0.732,0.111-0.988,0.334c-0.256,0.225-0.428,0.616-0.515,1.18l-3.165-0.225
			c0.125-0.782,0.352-1.393,0.683-1.832c0.331-0.438,0.798-0.773,1.396-1.009c0.604-0.234,1.438-0.354,2.504-0.354
			c1.109,0,1.976,0.111,2.594,0.334c0.618,0.225,1.104,0.565,1.457,1.026c0.354,0.462,0.533,0.979,0.533,1.552
			c0,0.609-0.204,1.191-0.61,1.746c-0.404,0.557-1.146,1.164-2.213,1.828c-0.636,0.387-1.062,0.657-1.276,0.812
			c-0.215,0.152-0.466,0.355-0.756,0.605h4.932V54.846z"/>
		<path fill="#C0D0D7" d="M94.853,54.846h-9.479c0.109-0.822,0.439-1.599,0.99-2.322c0.551-0.727,1.582-1.581,3.098-2.567
			c0.927-0.604,1.52-1.062,1.776-1.378c0.257-0.312,0.386-0.611,0.386-0.894c0-0.307-0.128-0.565-0.383-0.781
			c-0.257-0.216-0.578-0.323-0.966-0.323c-0.402,0-0.732,0.111-0.988,0.334c-0.256,0.225-0.428,0.616-0.516,1.18L85.61,47.87
			c0.124-0.782,0.351-1.393,0.683-1.832c0.331-0.438,0.798-0.773,1.399-1.009c0.601-0.235,1.437-0.354,2.501-0.354
			c1.111,0,1.977,0.111,2.594,0.334c0.617,0.225,1.104,0.565,1.457,1.026c0.354,0.462,0.532,0.979,0.532,1.552
			c0,0.609-0.202,1.191-0.609,1.746c-0.403,0.557-1.144,1.164-2.213,1.828c-0.636,0.387-1.062,0.657-1.273,0.812
			c-0.217,0.152-0.469,0.355-0.759,0.605h4.934L94.853,54.846L94.853,54.846z"/>
	</g>
</g>
</svg>
