<?xml version="1.0" encoding="utf-8"?>
<!-- Generator: Adobe Illustrator 16.0.0, SVG Export Plug-In . SVG Version: 6.00 Build 0)  -->
<!DOCTYPE svg PUBLIC "-//W3C//DTD SVG 1.1//EN" "http://www.w3.org/Graphics/SVG/1.1/DTD/svg11.dtd">
<svg version="1.1" id="Layer_1" xmlns="http://www.w3.org/2000/svg" xmlns:xlink="http://www.w3.org/1999/xlink" x="0px" y="0px"
	 width="500px" height="105px" viewBox="33 346 500 105" enable-background="new 33 346 500 105" xml:space="preserve">
<g>
	<path fill="#C93837" d="M62,439.32h77.261V362.06H62V439.32L62,439.32z M100.713,432.328c-17.243,0-31.232-13.989-31.232-31.231
		c0-17.239,13.992-31.227,31.232-31.227c17.238,0,31.23,13.987,31.23,31.227C131.943,418.339,117.955,432.328,100.713,432.328
		L100.713,432.328z"/>
	<polygon fill="#C93837" points="157.969,368.402 148.372,368.402 148.372,362.549 174.396,362.549 174.396,368.402 
		164.798,368.402 164.798,394.104 157.969,394.104 	"/>
	<polygon fill="#C93837" points="177.974,362.549 184.97,362.549 184.97,374.584 197.819,374.584 197.819,362.549 204.813,362.549 
		204.813,394.104 197.819,394.104 197.819,380.44 184.97,380.44 184.97,394.104 177.974,394.104 	"/>
	<polygon fill="#C93837" points="210.021,362.549 233.604,362.549 233.604,368.402 217.011,368.402 217.011,375.073 232.3,375.073 
		232.3,380.605 217.011,380.605 217.011,388.248 234.09,388.248 234.09,394.104 210.021,394.104 	"/>
	<path fill="#C93837" d="M258.816,362.549h7.156l11.875,31.556h-7.319l-2.275-6.994h-11.875l-2.602,6.994h-6.995L258.816,362.549
		L258.816,362.549z M258.165,381.905h8.132l-3.904-11.548h-0.162L258.165,381.905L258.165,381.905z"/>
	<polygon fill="#C93837" points="280.936,362.549 304.686,362.549 304.686,368.402 287.93,368.402 287.93,375.073 303.383,375.073 
		303.383,380.605 287.93,380.605 287.93,388.248 305.01,388.248 305.01,394.104 280.936,394.104 	"/>
	<path fill="#C93837" d="M309.726,362.549h17.08c5.69,0,9.271,3.904,9.271,8.622c0,3.737-1.464,6.506-5.042,7.966v0.163
		c3.413,0.808,4.391,4.228,4.717,7.313c0,1.957,0,5.694,1.301,7.486h-6.995c-0.809-1.952-0.809-5.042-1.135-7.486
		c-0.489-3.412-1.79-4.877-5.205-4.877h-6.994v12.366h-6.995L309.726,362.549L309.726,362.549z M316.72,376.86h7.647
		c3.085,0,4.709-1.457,4.709-4.554c0-3.085-1.624-4.386-4.709-4.386h-7.647V376.86L316.72,376.86z"/>
	<path fill="#C93837" d="M355.595,361.734c9.766,0,15.452,7.319,15.452,16.754c0,9.113-5.687,16.431-15.452,16.431
		c-9.918,0-15.614-7.317-15.614-16.431C339.98,369.054,345.672,361.734,355.595,361.734L355.595,361.734z M355.595,389.061
		c6.182,0,8.463-5.368,8.463-10.575c0-5.529-2.281-10.894-8.463-10.894c-6.338,0-8.617,5.361-8.617,10.894
		C346.973,383.692,349.252,389.061,355.595,389.061L355.595,389.061z"/>
	<path fill="#C93837" d="M380.644,383.692c0,4.234,3.255,5.859,6.994,5.859c2.437,0,6.182-0.814,6.182-4.067
		c0-3.417-4.879-3.903-9.439-5.204c-4.711-1.139-9.434-3.091-9.434-8.946c0-6.506,6.019-9.6,11.718-9.6
		c6.662,0,12.686,2.929,12.686,10.248h-6.669c-0.16-3.903-2.929-4.881-6.181-4.881c-2.277,0-4.879,0.978-4.879,3.578
		c0,2.441,1.461,2.767,9.435,4.88c2.275,0.49,9.434,1.952,9.434,9.108c0,5.86-4.554,10.248-13.171,10.248
		c-6.995,0-13.501-3.412-13.501-11.224H380.644L380.644,383.692z"/>
	<path fill="#C93837" d="M405.531,362.549h14.313c7.809,0,10.899,4.881,10.899,10.086c0,5.204-3.091,10.084-10.899,10.084h-7.313
		v11.391h-6.995L405.531,362.549L405.531,362.549z M412.525,377.35h5.362c3.253,0,6.182-0.648,6.182-4.718
		c0-4.064-2.929-4.713-6.182-4.713h-5.362V377.35L412.525,377.35z"/>
	<path fill="#C93837" d="M440.503,362.549h7.156l11.718,31.556h-7.159l-2.438-6.994h-11.882l-2.434,6.994h-6.994L440.503,362.549
		L440.503,362.549z M439.854,381.905h8.13l-3.901-11.548h-0.159L439.854,381.905L439.854,381.905z"/>
	<path fill="#C93837" d="M482.467,373.121c-0.486-3.091-3.576-5.529-6.989-5.529c-6.186,0-8.619,5.361-8.619,10.894
		c0,5.205,2.434,10.575,8.619,10.575c4.229,0,6.665-2.929,7.156-7.157h6.833c-0.813,7.97-6.18,13.013-13.989,13.013
		c-9.761,0-15.619-7.316-15.619-16.431c0-9.434,5.856-16.753,15.619-16.753c6.989,0,12.849,4.066,13.665,11.391L482.467,373.121
		L482.467,373.121z"/>
	<polygon fill="#C93837" points="493.366,362.549 516.951,362.549 516.951,368.402 500.197,368.402 500.197,375.073 
		515.648,375.073 515.648,380.605 500.197,380.605 500.197,388.248 517.276,388.248 517.276,394.104 493.366,394.104 	"/>
	<path fill="#C93837" d="M171.792,417.689c-0.486-3.255-3.577-5.693-7.32-5.693c-6.506,0-8.943,5.37-8.943,10.896
		c0,5.365,2.438,10.572,8.943,10.572c4.558,0,6.994-2.931,7.646-6.991h6.994c-0.649,7.808-6.343,12.848-14.643,12.848
		c-10.243,0-16.265-7.317-16.265-16.429c0-9.43,6.019-16.752,16.265-16.752c7.32,0,13.502,4.229,14.479,11.55H171.792
		L171.792,417.689z"/>
	<path fill="#C93837" d="M201.234,406.14c10.247,0,16.271,7.322,16.271,16.752c0,9.111-6.019,16.429-16.271,16.429
		c-10.409,0-16.429-7.317-16.429-16.429C184.806,413.462,190.825,406.14,201.234,406.14L201.234,406.14z M201.234,433.464
		c6.505,0,8.946-5.207,8.946-10.572c0-5.525-2.441-10.896-8.946-10.896c-6.663,0-9.109,5.37-9.109,10.896
		C192.125,428.262,194.566,433.464,201.234,433.464L201.234,433.464z"/>
	<path fill="#C93837" d="M224.819,406.95h17.897c6.014,0,9.759,3.91,9.759,8.792c0,3.737-1.628,6.506-5.204,7.967l0,0
		c3.576,0.973,4.556,4.228,4.712,7.484c0.163,1.951,0.163,5.688,1.463,7.482h-7.319c-0.809-1.952-0.809-5.039-1.136-7.646
		c-0.488-3.25-1.789-4.716-5.529-4.716h-7.322v12.366h-7.317L224.819,406.95L224.819,406.95z M232.138,421.265h7.971
		c3.253,0,5.037-1.298,5.037-4.554c0-2.926-1.784-4.391-5.037-4.391h-7.971V421.265L232.138,421.265z"/>
	<path fill="#C93837" d="M261.255,406.95h14.968c8.29,0,11.546,5.046,11.546,10.248c0,5.045-3.253,10.091-11.546,10.091h-7.646
		v11.387h-7.319V406.95H261.255z M268.574,421.919h5.688c3.418,0,6.346-0.816,6.346-4.721c0-4.057-2.928-4.878-6.346-4.878h-5.688
		V421.919L268.574,421.919z"/>
	<path fill="#C93837" d="M309.076,406.14c10.248,0,16.429,7.322,16.429,16.752c0,9.111-6.181,16.429-16.429,16.429
		c-10.244,0-16.431-7.317-16.431-16.429C292.646,413.462,298.83,406.14,309.076,406.14L309.076,406.14z M309.076,433.464
		c6.506,0,9.106-5.207,9.106-10.572c0-5.525-2.601-10.896-9.106-10.896c-6.508,0-9.108,5.37-9.108,10.896
		C299.968,428.262,302.568,433.464,309.076,433.464L309.076,433.464z"/>
	<path fill="#C93837" d="M332.496,406.95h17.895c6.019,0,9.76,3.91,9.76,8.792c0,3.737-1.627,6.506-5.207,7.967l0,0
		c3.58,0.973,4.556,4.228,4.881,7.484c0,1.951,0,5.688,1.301,7.482h-7.314c-0.812-1.952-0.812-5.039-1.138-7.646
		c-0.487-3.25-1.785-4.716-5.53-4.716h-7.314v12.366h-7.32v-31.728h-0.012V406.95z M339.818,421.265h7.971
		c3.253,0,5.04-1.298,5.04-4.554c0-2.926-1.787-4.391-5.04-4.391h-7.971V421.265L339.818,421.265z"/>
	<path fill="#C93837" d="M379.505,406.95h7.488l12.52,31.726h-7.639l-2.44-7.164h-12.524l-2.604,7.164h-7.314L379.505,406.95
		L379.505,406.95z M378.856,426.473h8.62l-4.229-11.714l0,0L378.856,426.473L378.856,426.473z"/>
	<polygon fill="#C93837" points="410.25,412.807 400.326,412.807 400.326,406.95 427.488,406.95 427.488,412.807 417.569,412.807 
		417.569,438.671 410.25,438.671 	"/>
	<polygon fill="#C93837" points="434.973,406.95 442.292,406.95 442.292,438.671 435.135,438.671 	"/>
	<path fill="#C93837" d="M466.04,406.14c10.414,0,16.427,7.322,16.427,16.752c0,9.111-6.013,16.429-16.427,16.429
		c-10.243,0-16.268-7.317-16.268-16.429C449.772,413.462,455.792,406.14,466.04,406.14L466.04,406.14z M466.04,433.464
		c6.67,0,9.113-5.207,9.113-10.572c0-5.525-2.438-10.896-9.113-10.896c-6.506,0-8.943,5.37-8.943,10.896
		C457.092,428.262,459.534,433.464,466.04,433.464L466.04,433.464z"/>
	<polygon fill="#C93837" points="489.137,406.95 496.291,406.95 510.281,428.262 510.281,428.262 510.281,406.95 517.111,406.95 
		517.111,438.671 509.795,438.671 495.968,417.366 495.968,417.366 495.968,438.671 489.137,438.671 	"/>
	<polygon fill="#C93837" points="148.697,401.422 518.252,401.422 518.252,399.635 148.697,399.635 	"/>
	<path fill="#C93837" d="M100.713,372.146c-16.104,0-28.955,13.013-28.955,28.948c0,15.939,12.852,28.955,28.955,28.955
		c15.939,0,28.952-13.016,28.952-28.955C129.665,385.158,116.652,372.146,100.713,372.146L100.713,372.146z M105.755,413.299H89.812
		l3.577-3.736h12.366V413.299L105.755,413.299z M105.755,405.978h-9.114l9.114-8.941V405.978L105.755,405.978z M112.912,413.299
		h-3.252v-25.864l-26.024,26.027h-4.713l33.995-34.327L112.912,413.299L112.912,413.299z"/>
</g>
</svg>
