<?xml version="1.0" encoding="utf-8"?>
<!-- Generator: Adobe Illustrator 16.0.0, SVG Export Plug-In . SVG Version: 6.00 Build 0)  -->
<!DOCTYPE svg PUBLIC "-//W3C//DTD SVG 1.1//EN" "http://www.w3.org/Graphics/SVG/1.1/DTD/svg11.dtd">
<svg version="1.1" id="Layer_1" xmlns="http://www.w3.org/2000/svg" xmlns:xlink="http://www.w3.org/1999/xlink" x="0px" y="0px"
	 width="358px" height="150px" viewBox="0 0 358 150" enable-background="new 0 0 358 150" xml:space="preserve">
<g>
	<g>
		<path d="M317.699,52.351c-1.488,0-2.698,1.209-2.698,2.694s1.21,2.694,2.698,2.694c1.487,0,2.697-1.209,2.697-2.694
			S319.187,52.351,317.699,52.351 M317.699,57.209c-1.195,0-2.167-0.971-2.167-2.164s0.972-2.164,2.167-2.164
			c1.194,0,2.167,0.971,2.167,2.164S318.894,57.209,317.699,57.209"/>
		<path d="M318.815,54.592c0-0.474-0.325-0.821-0.856-0.821h-1.193v2.548h0.543v-0.905h0.397l0.502,0.905h0.623l-0.573-0.97
			C318.532,55.283,318.815,55.043,318.815,54.592 M317.879,54.936h-0.57v-0.687h0.57c0.218,0,0.382,0.129,0.382,0.343
			S318.097,54.936,317.879,54.936"/>
		<path d="M269.579,52.394c-7.162,0-12.968,5.798-12.968,12.95s5.806,12.95,12.968,12.95s12.969-5.798,12.969-12.95
			S276.741,52.394,269.579,52.394 M269.579,73.217c-4.354,0-7.884-3.525-7.884-7.873s3.529-7.873,7.884-7.873
			c4.354,0,7.884,3.525,7.884,7.873S273.933,73.217,269.579,73.217"/>
		<path d="M112.839,64.895c2.324-0.479,4.241-2.541,4.241-5.635c0-3.277-2.397-6.26-7.08-6.26H97.056v24.562h13.35
			c4.684,0,7.154-2.946,7.154-6.629C117.56,67.84,115.458,65.3,112.839,64.895 M102.293,57.492h6.562
			c1.771,0,2.877,1.142,2.877,2.688s-1.105,2.651-2.877,2.651h-6.562V57.492z M109.041,73.033h-6.748v-5.708h6.748
			c2.064,0,3.171,1.325,3.171,2.872C112.212,71.965,111.032,73.033,109.041,73.033"/>
		<path d="M141.923,60.917c0-4.566-3.136-7.917-8.261-7.917h-11.506v24.562h5.236v-8.729h3.836l4.83,8.729h6.012l-5.531-9.354
			C139.193,67.582,141.923,65.263,141.923,60.917 M132.888,64.231h-5.495v-6.629h5.495c2.102,0,3.688,1.253,3.688,3.314
			C136.576,62.979,134.989,64.231,132.888,64.231"/>
		<path d="M182.286,53l-9.515,24.562h5.975l1.549-4.161h10.547l1.512,4.161h5.975L188.851,53H182.286z M181.732,68.798l3.836-10.569
			l3.835,10.569H181.732z"/>
		<path d="M212.552,53h-9.699v24.562h9.699c7.707,0,13.054-4.861,13.054-12.263C225.605,57.896,220.259,53,212.552,53
			 M212.552,72.959h-4.462V57.603h4.462c5.052,0,7.707,3.352,7.707,7.697C220.259,69.46,217.419,72.959,212.552,72.959"/>
		<path d="M304.938,52.995l-6.45,10.414l-6.45-10.414h-5.789v24.567h5.237V61.506l5.639,8.562c0.645,0.979,2.082,0.979,2.727,0
			l5.639-8.562v16.057h5.238V52.995H304.938z"/>
		<path d="M158.528,52.394c-7.162,0-12.969,5.798-12.969,12.95s5.807,12.95,12.969,12.95s12.968-5.798,12.968-12.95
			S165.69,52.394,158.528,52.394 M158.528,73.217c-4.354,0-7.884-3.525-7.884-7.873s3.529-7.873,7.884-7.873
			c4.354,0,7.884,3.525,7.884,7.873S162.882,73.217,158.528,73.217"/>
		<path d="M249.173,69.153c-1.345,2.422-3.928,4.063-6.897,4.063c-4.354,0-7.884-3.525-7.884-7.873s3.529-7.873,7.884-7.873
			c2.945,0,5.509,1.616,6.862,4.006l3.678-3.673c-2.354-3.274-6.196-5.41-10.54-5.41c-7.162,0-12.968,5.798-12.968,12.95
			s5.806,12.95,12.968,12.95c4.368,0,8.229-2.159,10.578-5.465L249.173,69.153z"/>
		<path fill="#CE2030" d="M69.314,47.105c-10.087,0-18.264,8.166-18.264,18.238c0,1.923,0.3,3.775,0.853,5.515
			c0.428-0.206,0.862-0.405,1.319-0.587c2.088-0.831,4.001-0.553,5.917,0.607c0,0,0.699,0.426,0.908,0.557
			c0.894,0.561,1.736,1.09,2.546,1.09c0.773,0,1.534-0.206,1.855-1.699c0.501-2.328,1.726-8.051,2.26-10.885
			c0.313-1.666,0.486-2.563,0.666-3.173c0.312-1.067,0.884-1.649,1.694-1.747c0,0,0.142-0.021,0.245-0.021s0.232,0.02,0.232,0.02
			c0.817,0.093,1.394,0.675,1.709,1.748c0.179,0.609,0.351,1.507,0.665,3.173c0.533,2.834,1.758,8.557,2.26,10.885
			c0.322,1.493,1.082,1.699,1.855,1.699c0.809,0,1.652-0.529,2.545-1.09c0.21-0.131,0.908-0.557,0.908-0.557
			c1.916-1.16,3.829-1.438,5.918-0.607c0.457,0.182,0.892,0.381,1.319,0.587c0.552-1.74,0.852-3.592,0.852-5.515
			C87.578,55.271,79.401,47.105,69.314,47.105"/>
		<path fill="#CE2030" d="M82.062,72.906c-0.688,0.231-1.301,0.639-1.912,1.021c-1.151,0.724-2.455,1.543-4.113,1.543
			c-2.46,0-4.186-1.468-4.737-4.024c-0.427-1.98-1.986-9.456-1.986-9.456c-0.608,3.052-1.556,7.476-1.982,9.456
			c-0.551,2.557-2.277,4.024-4.736,4.024c-1.659,0-2.963-0.819-4.113-1.543c-0.611-0.382-1.224-0.789-1.912-1.021
			c-0.709-0.236-1.441-0.226-2.153-0.016c-0.502,0.147-0.979,0.355-1.447,0.587c2.993,5.989,9.051,10.104,16.21,10.104
			c7.158,0,13.488-4.115,16.483-10.105c-0.468-0.23-0.945-0.438-1.447-0.586C83.5,72.681,82.77,72.67,82.062,72.906"/>
		<path fill="#FFFFFF" d="M85.407,70.271c-2.089-0.831-4.002-0.553-5.918,0.607c0,0-0.698,0.426-0.908,0.557
			c-0.893,0.561-1.737,1.09-2.545,1.09c-0.774,0-1.533-0.206-1.856-1.699c-0.502-2.328-1.726-8.051-2.259-10.885
			c-0.314-1.666-0.486-2.563-0.665-3.173c-0.315-1.073-0.892-1.655-1.709-1.748c0,0-0.128-0.021-0.232-0.021
			s-0.245,0.021-0.245,0.021c-0.811,0.098-1.383,0.68-1.695,1.747c-0.179,0.609-0.352,1.507-0.665,3.173
			c-0.534,2.834-1.759,8.557-2.26,10.885c-0.322,1.493-1.082,1.699-1.855,1.699c-0.81,0-1.652-0.529-2.546-1.09
			c-0.209-0.131-0.909-0.557-0.909-0.557c-1.916-1.16-3.828-1.438-5.917-0.607c-0.451,0.18-0.88,0.376-1.303,0.58
			c0.289,0.905,0.646,1.779,1.067,2.617c0.462-0.228,0.934-0.432,1.429-0.578c0.713-0.21,1.444-0.221,2.153,0.016
			c0.688,0.231,1.301,0.639,1.912,1.021c1.15,0.723,2.454,1.541,4.113,1.541c2.459,0,4.186-1.468,4.736-4.023
			c0.427-1.98,1.374-6.404,1.982-9.456c0,0,1.56,7.476,1.986,9.456c0.552,2.556,2.277,4.023,4.737,4.023
			c1.658,0,2.963-0.818,4.113-1.541c0.611-0.383,1.224-0.79,1.912-1.021c0.708-0.236,1.439-0.226,2.152-0.016
			c0.495,0.146,0.968,0.351,1.43,0.578c0.421-0.838,0.778-1.712,1.067-2.618C86.288,70.647,85.858,70.451,85.407,70.271"/>
		<path fill="#272525" d="M99.918,101.854v4.133c-0.021,1.448,0.128,1.726,0.875,1.726h0.447l-0.063,0.852h-4.181l0.063-0.852h0.17
			c0.726,0,0.896-0.277,0.896-1.704v-9.074c0-1.406-0.171-1.704-0.896-1.704h-0.233l0.063-0.853h8.938
			c0.021,0.319,0.043,0.448,0.064,0.683l0.085,0.554c0.084,0.596,0.127,0.895,0.149,1.32h-1.131
			c-0.063-1.044-0.341-1.278-1.45-1.278h-2.325c-1.258,0-1.493,0.234-1.493,1.406v3.493h5.375l-0.063,1.299H99.918z"/>
		<path fill="#272525" d="M116.621,108.842c-3.903,0-6.016-2.578-6.016-7.37c0-4.793,2.112-7.392,6.016-7.392
			s5.994,2.599,5.994,7.392C122.615,106.285,120.524,108.842,116.621,108.842 M116.664,95.507c-2.923,0-4.202,1.833-4.202,5.965
			c0,4.068,1.301,5.964,4.095,5.964c2.922,0,4.224-1.811,4.224-5.964C120.78,97.403,119.479,95.507,116.664,95.507"/>
		<path fill="#272525" d="M135.543,94.378h3.925l-0.085,0.853h-0.15c-0.745,0-0.916,0.298-0.916,1.704v7.327
			c0,1.641-0.47,2.919-1.344,3.579c-0.811,0.639-2.283,1.001-3.84,1.001s-3.007-0.362-3.839-1.001
			c-0.96-0.725-1.43-1.896-1.43-3.558v-7.349c0-1.406-0.149-1.704-0.896-1.704h-0.234l0.063-0.853h3.989l-0.064,0.853h-0.149
			c-0.768,0-0.917,0.298-0.917,1.704v6.943c0,1.492,0.192,2.237,0.683,2.727c0.533,0.533,1.578,0.831,2.794,0.831
			c1.237,0,2.304-0.319,2.794-0.831c0.513-0.532,0.683-1.234,0.683-2.704v-6.966c0-1.406-0.148-1.704-0.896-1.704h-0.234
			L135.543,94.378z"/>
		<path fill="#272525" d="M154.273,108.564l-6.506-9.648c-0.854-1.278-1.151-1.832-1.578-3.004h-0.064l0.085,0.575
			c0.128,0.958,0.214,1.938,0.214,2.812v6.71c0,1.405,0.149,1.704,0.896,1.704h0.363l-0.064,0.852h-3.839l0.085-0.852h0.171
			c0.725,0,0.896-0.277,0.896-1.704v-9.074c0-1.406-0.171-1.704-0.896-1.704h-0.234l0.063-0.854h2.965
			c0.213,0.556,0.277,0.662,0.704,1.301c0.106,0.128,0.213,0.299,0.362,0.512l5.034,7.477c0.576,0.852,0.96,1.598,1.301,2.449h0.064
			c-0.192-0.852-0.299-1.726-0.299-2.642v-6.539c0-1.406-0.149-1.704-0.896-1.704h-0.385l0.065-0.854h3.84l-0.064,0.854h-0.149
			c-0.768,0-0.917,0.298-0.917,1.704v9.693c0,1.021,0,1.17,0.128,1.682l0.064,0.255H154.273z"/>
		<path fill="#272525" d="M161.037,94.378h5.973c1.835,0,2.815,0.235,3.732,0.938c0.576,0.426,1.046,0.959,1.365,1.555
			c0.683,1.236,1.046,2.791,1.046,4.58c0,3.004-0.981,5.197-2.796,6.305c-1.002,0.597-2.067,0.81-3.924,0.81h-5.46l0.063-0.852
			h0.171c0.725,0,0.895-0.277,0.895-1.704v-9.074c0-1.406-0.17-1.704-0.895-1.704h-0.256L161.037,94.378z M163.874,105.114
			c0,2.087,0.106,2.193,2.39,2.193c1.983,0,3.221-0.511,3.967-1.618c0.726-1.022,1.088-2.492,1.088-4.282
			c0-2.15-0.618-4.025-1.6-4.877c-0.661-0.576-1.728-0.874-3.156-0.874c-2.347,0-2.688,0.277-2.688,2.237V105.114z"/>
		<path fill="#272525" d="M180.363,103.623l-1.215,3.067c-0.085,0.213-0.148,0.511-0.148,0.639c0,0.256,0.127,0.362,0.575,0.384
			l-0.085,0.852h-3.072l0.086-0.852c0.318-0.043,0.427-0.106,0.555-0.319c0.085-0.149,0.128-0.213,0.341-0.703l4.543-10.523
			c0.342-0.787,0.47-1.256,0.491-1.789h1.877c0.021,0.49,0.064,0.684,0.49,1.789l4.097,10.65l0.127,0.342
			c0.149,0.426,0.342,0.554,0.79,0.554l-0.086,0.852h-3.221l0.064-0.852c0.426-0.021,0.575-0.106,0.575-0.384
			c0-0.128-0.063-0.384-0.17-0.639l-1.131-3.067H180.363z M183.714,98c-0.257-0.66-0.385-1.406-0.385-2.109v-0.043h-0.085
			c-0.043,0.768-0.172,1.3-0.533,2.152l-1.813,4.345h4.479L183.714,98z"/>
		<path fill="#272525" d="M201.444,97.02c0-0.149,0-0.256,0.021-0.319v-0.17c0-0.789-0.233-0.874-2.11-0.874h-1.024v10.353
			c-0.021,1.427,0.128,1.704,0.875,1.704h0.256l-0.085,0.852h-3.968l0.063-0.852h0.171c0.747,0,0.896-0.277,0.896-1.704V95.656
			h-1.258c-1.643,0-1.749,0.064-1.878,1.044l-0.042,0.319h-1.131c0.064-0.554,0.106-1.235,0.106-2.066
			c0-0.17-0.021-0.298-0.021-0.575h10.366l-0.021,0.319c-0.021,0.214-0.021,0.512-0.042,0.938l-0.021,0.853
			c0,0.063-0.021,0.256-0.021,0.532H201.444z"/>
		<path fill="#272525" d="M210.98,108.564h-3.968l0.064-0.852h0.149c0.746,0,0.917-0.277,0.917-1.704v-9.074
			c0-1.406-0.171-1.704-0.917-1.704h-0.234l0.085-0.854h2.837h1.131l-0.064,0.854h-0.149c-0.768,0-0.917,0.298-0.917,1.704v9.074
			c0,1.427,0.149,1.704,0.896,1.704h0.235L210.98,108.564z"/>
		<path fill="#272525" d="M221.392,108.842c-3.903,0-6.017-2.578-6.017-7.37c0-4.793,2.113-7.392,6.017-7.392
			s5.993,2.599,5.993,7.392C227.385,106.285,225.295,108.842,221.392,108.842 M221.434,95.507c-2.922,0-4.201,1.833-4.201,5.965
			c0,4.068,1.3,5.964,4.095,5.964c2.921,0,4.224-1.811,4.224-5.964C225.551,97.403,224.248,95.507,221.434,95.507"/>
		<path fill="#272525" d="M241.784,108.564l-6.505-9.648c-0.854-1.278-1.152-1.832-1.578-3.004h-0.064l0.084,0.575
			c0.129,0.958,0.215,1.938,0.215,2.812v6.71c0,1.405,0.149,1.704,0.896,1.704h0.362l-0.063,0.852h-3.84l0.086-0.852h0.17
			c0.726,0,0.896-0.277,0.896-1.704v-9.074c0-1.406-0.171-1.704-0.896-1.704h-0.234l0.064-0.854h2.965
			c0.213,0.556,0.277,0.662,0.703,1.301c0.107,0.128,0.214,0.299,0.363,0.512l5.034,7.477c0.574,0.852,0.96,1.598,1.301,2.449h0.064
			c-0.192-0.852-0.299-1.726-0.299-2.642v-6.539c0-1.406-0.149-1.704-0.896-1.704h-0.384l0.064-0.854h3.84l-0.064,0.854h-0.149
			c-0.769,0-0.918,0.298-0.918,1.704v9.693c0,1.021,0,1.17,0.129,1.682l0.063,0.255H241.784z"/>
		<rect x="97.055" y="85.785" fill="#272525" width="213.674" height="0.568"/>
		<rect x="78.713" y="173.1" fill="#808285" width="213.674" height="0.568"/>
	</g>
</g>
</svg>
