<?xml version="1.0" encoding="utf-8"?>
<!-- Generator: Adobe Illustrator 16.0.0, SVG Export Plug-In . SVG Version: 6.00 Build 0)  -->
<!DOCTYPE svg PUBLIC "-//W3C//DTD SVG 1.1//EN" "http://www.w3.org/Graphics/SVG/1.1/DTD/svg11.dtd">
<svg version="1.1" id="Layer_1" xmlns="http://www.w3.org/2000/svg" xmlns:xlink="http://www.w3.org/1999/xlink" x="0px" y="0px"
	 width="642px" height="107px" viewBox="-388 -27.5 642 107" enable-background="new -388 -27.5 642 107" xml:space="preserve">
<g>
	<g>
		<path d="M241.194-3.396c-3.422,0-6.205,2.78-6.205,6.194c0,3.416,2.783,6.195,6.205,6.195c3.415,0,6.202-2.779,6.202-6.195
			C247.396-0.616,244.616-3.396,241.194-3.396 M241.194,7.774c-2.749,0-4.982-2.232-4.982-4.977s2.233-4.976,4.982-4.976
			c2.741,0,4.983,2.231,4.983,4.976S243.94,7.774,241.194,7.774"/>
		<path d="M243.761,1.756c0-1.089-0.748-1.887-1.969-1.887h-2.744v5.856h1.248V3.646h0.914l1.154,2.079h1.433l-1.317-2.228
			C243.109,3.346,243.761,2.793,243.761,1.756 M241.607,2.547h-1.312V0.968h1.312c0.5,0,0.878,0.296,0.878,0.788
			C242.485,2.25,242.107,2.547,241.607,2.547"/>
		<path d="M130.545-3.296c-16.469,0-29.818,13.329-29.818,29.775c0,16.445,13.35,29.778,29.818,29.778
			c16.47,0,29.821-13.333,29.821-29.778C160.366,10.033,147.015-3.296,130.545-3.296 M130.545,44.583
			c-10.013,0-18.129-8.107-18.129-18.104c0-9.997,8.116-18.104,18.129-18.104s18.129,8.107,18.129,18.104
			C148.674,36.476,140.558,44.583,130.545,44.583"/>
		<path d="M-229.87,25.446c5.344-1.101,9.752-5.843,9.752-12.956c0-7.537-5.51-14.395-16.28-14.395h-29.763v56.479h30.697
			c10.77,0,16.451-6.774,16.451-15.242C-219.013,32.219-223.847,26.379-229.87,25.446 M-254.119,8.425h15.089
			c4.071,0,6.615,2.625,6.615,6.18c0,3.558-2.542,6.097-6.615,6.097h-15.089V8.425z M-238.603,44.161h-15.516V31.036h15.516
			c4.747,0,7.292,3.047,7.292,6.604C-231.312,41.704-234.024,44.161-238.603,44.161"/>
		<path d="M-162.993,16.301c0-10.499-7.21-18.205-18.995-18.205h-26.457v56.479h12.041V34.502h8.821l11.106,20.073h13.824
			l-12.719-21.51C-169.269,31.626-162.993,26.296-162.993,16.301 M-183.766,23.919h-12.639V8.676h12.639
			c4.832,0,8.479,2.885,8.479,7.622C-175.287,21.041-178.938,23.919-183.766,23.919"/>
		<path d="M-70.18-1.904l-21.878,56.479h13.738l3.562-9.57h24.252l3.476,9.57h13.743L-55.083-1.904H-70.18z M-71.454,34.422
			l8.821-24.304l8.816,24.304H-71.454z"/>
		<path d="M-0.586-1.904h-22.3v56.479h22.3c17.723,0,30.017-11.178,30.017-28.201C29.43,9.354,17.136-1.904-0.586-1.904
			 M-0.586,43.99h-10.26V8.681h10.26c11.616,0,17.723,7.707,17.723,17.698C17.136,35.944,10.605,43.99-0.586,43.99"/>
		<path d="M211.85-1.916l-14.829,23.947L182.19-1.916h-13.312v56.491h12.04V17.654l12.968,19.688c1.485,2.251,4.789,2.251,6.272,0
			l12.968-19.688v36.921h12.043V-1.916H211.85z"/>
		<path d="M-124.812-3.296c-16.467,0-29.82,13.329-29.82,29.775c0,16.445,13.354,29.778,29.82,29.778
			c16.469,0,29.821-13.333,29.821-29.778C-94.991,10.033-108.343-3.296-124.812-3.296 M-124.812,44.583
			c-10.011,0-18.126-8.107-18.126-18.104c0-9.997,8.113-18.104,18.126-18.104s18.13,8.107,18.13,18.104
			C-106.682,36.476-114.799,44.583-124.812,44.583"/>
		<path d="M83.622,35.236c-3.092,5.571-9.031,9.344-15.86,9.344c-10.011,0-18.126-8.104-18.126-18.103S57.749,8.373,67.762,8.373
			c6.772,0,12.672,3.717,15.781,9.214L92,9.139C86.589,1.612,77.755-3.301,67.762-3.301c-16.469,0-29.816,13.334-29.816,29.778
			c0,16.445,13.347,29.778,29.816,29.778c10.047,0,18.923-4.966,24.323-12.567L83.622,35.236z"/>
		<path fill="#CE2030" d="M-329.952-15.458c-23.196,0-41.999,18.778-41.999,41.936c0,4.421,0.689,8.681,1.96,12.68
			c0.985-0.471,1.985-0.93,3.036-1.347c4.801-1.913,9.198-1.273,13.603,1.394c0,0,1.608,0.981,2.089,1.283
			c2.057,1.288,3.992,2.506,5.854,2.506c1.779,0,3.528-0.477,4.267-3.908c1.152-5.353,3.968-18.512,5.196-25.028
			c0.72-3.831,1.116-5.895,1.531-7.298c0.716-2.452,2.032-3.791,3.896-4.015c0,0,0.325-0.05,0.561-0.05
			c0.238,0,0.534,0.045,0.534,0.045c1.877,0.215,3.207,1.555,3.93,4.02c0.413,1.401,0.809,3.467,1.529,7.298
			c1.226,6.517,4.044,19.676,5.199,25.028c0.738,3.432,2.488,3.908,4.264,3.908c1.859,0,3.797-1.218,5.852-2.506
			c0.482-0.302,2.086-1.283,2.086-1.283c4.406-2.667,8.807-3.307,13.608-1.394c1.051,0.417,2.052,0.876,3.036,1.347
			c1.267-3.999,1.958-8.259,1.958-12.68C-287.956,3.319-306.76-15.458-329.952-15.458"/>
		<path fill="#CE2030" d="M-300.638,43.868c-1.583,0.53-2.991,1.469-4.396,2.347c-2.648,1.665-5.646,3.549-9.459,3.549
			c-5.656,0-9.625-3.376-10.893-9.254c-0.982-4.552-4.565-21.742-4.565-21.742c-1.399,7.018-3.58,17.19-4.559,21.742
			c-1.267,5.881-5.236,9.254-10.891,9.254c-3.812,0-6.812-1.884-9.458-3.549c-1.403-0.878-2.813-1.812-4.397-2.347
			c-1.63-0.543-3.312-0.521-4.949-0.036c-1.155,0.338-2.25,0.815-3.328,1.349c6.882,13.771,20.811,23.234,37.275,23.234
			c16.458,0,31.013-9.463,37.9-23.234c-1.078-0.531-2.174-1.009-3.328-1.349C-297.333,43.353-299.012,43.325-300.638,43.868"/>
		<path fill="#FFFFFF" d="M-292.947,37.811c-4.804-1.913-9.205-1.273-13.61,1.394c0,0-1.603,0.981-2.086,1.283
			c-2.055,1.288-3.995,2.506-5.852,2.506c-1.781,0-3.526-0.477-4.269-3.908c-1.155-5.353-3.968-18.512-5.194-25.028
			c-0.721-3.831-1.117-5.895-1.53-7.298c-0.723-2.465-2.052-3.805-3.929-4.02c0,0-0.294-0.047-0.535-0.047
			c-0.238,0-0.561,0.047-0.561,0.047c-1.866,0.227-3.18,1.565-3.899,4.02c-0.413,1.399-0.808,3.463-1.529,7.293
			c-1.229,6.517-4.044,19.679-5.196,25.031c-0.741,3.434-2.488,3.906-4.265,3.906c-1.864,0-3.799-1.216-5.856-2.507
			c-0.48-0.302-2.088-1.28-2.088-1.28c-4.406-2.667-8.803-3.305-13.608-1.396c-1.038,0.415-2.024,0.867-2.996,1.334
			c0.665,2.082,1.487,4.092,2.453,6.019c1.064-0.524,2.148-0.993,3.288-1.33c1.639-0.48,3.319-0.507,4.949,0.038
			c1.583,0.528,2.994,1.469,4.397,2.347c2.646,1.662,5.645,3.544,9.458,3.544c5.655,0,9.625-3.376,10.891-9.252
			c0.981-4.552,3.16-14.724,4.559-21.742c0,0,3.586,17.19,4.565,21.742c1.268,5.879,5.236,9.252,10.893,9.252
			c3.813,0,6.813-1.882,9.458-3.544c1.404-0.88,2.814-1.816,4.396-2.347c1.626-0.543,3.308-0.519,4.947-0.038
			c1.138,0.337,2.226,0.809,3.29,1.33c0.966-1.927,1.788-3.937,2.452-6.019C-290.922,38.673-291.912,38.223-292.947,37.811"/>
	</g>
</g>
</svg>
