<?xml version="1.0" encoding="utf-8"?>
<!-- Generator: Adobe Illustrator 16.0.0, SVG Export Plug-In . SVG Version: 6.00 Build 0)  -->
<!DOCTYPE svg PUBLIC "-//W3C//DTD SVG 1.1//EN" "http://www.w3.org/Graphics/SVG/1.1/DTD/svg11.dtd">
<svg version="1.1" id="Layer_1" xmlns="http://www.w3.org/2000/svg" xmlns:xlink="http://www.w3.org/1999/xlink" x="0px" y="0px"
	 width="196px" height="105px" viewBox="-39.5 0 196 105" enable-background="new -39.5 0 196 105" xml:space="preserve">
<g>
	<path d="M21.244,33.297v-3.381h1.168c0.597-0.027,1.317-0.015,1.833,0.299c0.461,0.285,0.801,0.841,0.801,1.385
		c0,0.556-0.326,1.14-0.814,1.398c-0.571,0.312-1.263,0.299-1.901,0.299H21.244z M21.244,38.13v-3.924h1.059
		c0.666,0,1.399-0.014,2.023,0.203c0.774,0.271,1.263,0.95,1.249,1.806c0.014,0.638-0.407,1.316-0.977,1.616
		c-0.611,0.312-1.439,0.312-2.118,0.299H21.244z M20.24,39.039h2.362c1.005-0.015,1.874,0.014,2.756-0.544
		c0.774-0.488,1.236-1.385,1.236-2.294c0-1.153-0.598-2.091-1.657-2.524c0.693-0.489,1.113-1.142,1.113-2.01
		c0-0.869-0.461-1.684-1.181-2.158c-0.692-0.448-1.48-0.502-2.28-0.502H20.24V39.039z"/>
	<path d="M28.035,29.006v6.096c0,1.059,0.108,2.063,0.801,2.919c0.638,0.773,1.616,1.194,2.62,1.194
		c1.032,0,2.037-0.447,2.661-1.275c0.652-0.842,0.746-1.819,0.746-2.838v-6.096h-1.004v6.096c0,0.788-0.068,1.589-0.556,2.239
		c-0.421,0.584-1.141,0.91-1.847,0.91c-0.787,0-1.534-0.38-1.955-1.045c-0.394-0.625-0.461-1.385-0.461-2.104v-6.096H28.035z"/>
	<path d="M36.926,39.039h1.005v-9.123h1.588c0.787,0,1.602,0,2.267,0.475c0.57,0.394,0.937,1.1,0.937,1.792
		c0,0.896-0.475,1.656-1.303,2.037c-0.665,0.298-1.48,0.271-2.186,0.271h-0.299l3.408,4.549h1.249l-2.824-3.747
		c1.629-0.04,2.96-1.371,2.96-3.015c0-1.167-0.544-2.199-1.562-2.783c-0.841-0.475-1.9-0.487-2.851-0.487h-2.389V39.039z"/>
	<path d="M45.167,39.039h1.005v-9.123h1.588c0.788,0,1.602,0,2.267,0.475c0.57,0.394,0.937,1.1,0.937,1.792
		c0,0.896-0.475,1.656-1.303,2.037c-0.665,0.298-1.48,0.271-2.186,0.271h-0.299l3.408,4.549h1.249l-2.824-3.747
		c1.629-0.04,2.96-1.371,2.96-3.015c0-1.167-0.543-2.199-1.562-2.783c-0.841-0.475-1.9-0.487-2.851-0.487h-2.389V39.039z"/>
	<path d="M58.283,29.807c2.294,0,4.289,1.86,4.289,4.183c0,2.375-1.927,4.262-4.289,4.262c-2.281,0-4.304-1.858-4.304-4.181
		c0-2.362,1.941-4.264,4.304-4.277V29.807z M58.269,28.843c-2.905,0-5.294,2.309-5.294,5.228c0,2.878,2.484,5.145,5.294,5.145
		c2.905,0,5.308-2.308,5.308-5.226C63.577,31.11,61.106,28.843,58.269,28.843"/>
	<path d="M65.209,29.006v6.096c0,1.059,0.109,2.063,0.801,2.919c0.639,0.773,1.615,1.194,2.62,1.194
		c1.032,0,2.036-0.447,2.661-1.275c0.65-0.842,0.747-1.819,0.747-2.838v-6.096h-1.005v6.096c0,0.788-0.068,1.589-0.557,2.239
		c-0.422,0.584-1.141,0.91-1.847,0.91c-0.787,0-1.534-0.38-1.955-1.045c-0.394-0.625-0.461-1.385-0.461-2.104v-6.096H65.209z"/>
	<path d="M77.535,34.409v0.909h5.607c-0.504,1.752-2.268,2.933-4.06,2.933c-2.39,0-4.413-1.818-4.413-4.263
		c0-1.14,0.559-2.294,1.385-3.054c0.829-0.761,1.914-1.127,2.987-1.127c1.397,0,2.851,0.691,3.558,1.873h1.139
		c-0.256-0.774-1.1-1.548-1.75-1.982c-0.869-0.57-1.901-0.854-2.946-0.854c-1.438,0-2.783,0.502-3.828,1.533
		c-0.937,0.924-1.548,2.268-1.548,3.599c0,2.932,2.484,5.24,5.376,5.24c2.701,0,5.118-2.051,5.308-4.807H77.535z"/>
</g>
<polygon points="85.941,39.039 86.945,39.039 86.945,34.327 92.146,34.327 92.146,39.039 93.15,39.039 93.15,29.007 92.146,29.007 
	92.146,33.419 86.945,33.419 86.945,29.007 85.941,29.007 "/>
<g>
	<path d="M94.48,36.229c-0.015,1.751,1.397,2.987,3.108,2.987c1.629,0,3.054-1.276,3.054-2.934c0-0.8-0.338-1.588-0.937-2.104
		c-0.583-0.529-1.208-0.651-1.929-0.854c-0.977-0.271-1.98-0.557-1.98-1.765c0-0.95,0.746-1.751,1.725-1.751
		c1.03,0,1.764,0.732,1.832,1.751h1.045c0.014-1.534-1.235-2.715-2.756-2.715c-1.574,0-2.851,1.086-2.851,2.7
		c0,0.721,0.285,1.399,0.841,1.874c0.504,0.435,1.141,0.598,1.766,0.761c0.57,0.148,1.086,0.285,1.547,0.666
		c0.422,0.339,0.693,0.882,0.693,1.425c0,1.154-0.937,1.981-2.076,1.981c-1.127,0-1.982-0.923-2.01-2.022L94.48,36.229L94.48,36.229
		z"/>
</g>
<polygon points="23.232,53.155 24.648,53.155 27.028,44.307 29.394,53.155 30.81,53.155 33.892,42.364 32.767,42.364 30.124,51.753 
	27.539,42.364 26.517,42.364 23.933,51.769 21.29,42.364 20.165,42.364 "/>
<polygon points="35.146,53.155 41.045,53.155 41.045,52.178 36.226,52.178 36.226,48.205 40.884,48.205 40.884,47.228 
	36.226,47.228 36.226,43.343 41.045,43.343 41.045,42.364 35.146,42.364 "/>
<polygon points="42.969,53.155 48.518,53.155 48.518,52.178 44.049,52.178 44.049,42.364 42.969,42.364 "/>
<polygon points="49.714,53.155 55.263,53.155 55.263,52.178 50.795,52.178 50.795,42.364 49.714,42.364 "/>
<g>
	<path d="M66.548,45.139c-0.293-0.789-1.183-1.605-1.868-2.044c-0.921-0.614-2.016-0.906-3.112-0.906
		c-3.066,0-5.577,2.469-5.577,5.535c0,3.184,2.496,5.621,5.665,5.621c2.03,0,4.001-1.212,4.936-3.008h-1.197
		c-0.847,1.183-2.278,1.971-3.739,1.971c-2.453,0-4.585-2.058-4.585-4.584c0-2.366,2.059-4.498,4.512-4.498
		c1.446,0,2.965,0.687,3.767,1.913H66.548z"/>
	<path d="M73.568,43.227c2.469,0,4.615,2,4.615,4.497c0,2.555-2.074,4.585-4.615,4.585c-2.452,0-4.629-2-4.629-4.497
		c0-2.541,2.088-4.585,4.629-4.601V43.227z M73.555,42.189c-3.125,0-5.695,2.482-5.695,5.622c0,3.095,2.673,5.534,5.695,5.534
		c3.125,0,5.709-2.483,5.709-5.622C79.264,44.627,76.605,42.189,73.555,42.189"/>
</g>
<polygon points="81.014,53.155 82.093,53.155 82.093,43.562 86.152,53.155 87.072,53.155 91.132,43.562 91.132,53.155 
	92.213,53.155 92.213,42.364 90.548,42.364 86.62,51.55 82.677,42.364 81.014,42.364 "/>
<polygon points="94.43,53.155 100.329,53.155 100.329,52.178 95.51,52.178 95.51,48.205 100.168,48.205 100.168,47.228 
	95.51,47.228 95.51,43.343 100.329,43.343 100.329,42.364 94.43,42.364 "/>
<polygon points="20.296,73.582 21.904,73.582 21.904,66.236 28.206,66.236 28.206,64.781 21.904,64.781 21.904,58.979 
	28.445,58.979 28.445,57.521 20.296,57.521 "/>
<g>
	<path d="M30.83,57.521v9.759c0,1.694,0.174,3.303,1.282,4.672c1.021,1.239,2.586,1.913,4.195,1.913
		c1.651,0,3.259-0.717,4.259-2.043c1.043-1.348,1.195-2.912,1.195-4.542v-9.759h-1.608v9.759c0,1.261-0.109,2.543-0.891,3.586
		c-0.674,0.934-1.826,1.456-2.955,1.456c-1.261,0-2.457-0.609-3.13-1.674c-0.63-1-0.739-2.217-0.739-3.368v-9.759H30.83z"/>
</g>
<polygon points="45.056,73.582 46.664,73.582 46.664,59.457 56.226,73.582 57.833,73.582 57.833,57.521 56.226,57.521 
	56.226,70.845 47.229,57.521 45.056,57.521 "/>
<g>
	<path d="M62.743,72.126V58.979h2.065c2.129-0.021,4.02,0.088,5.779,1.457c1.652,1.304,2.479,3,2.499,5.084
		c-0.021,2.043-0.869,3.869-2.478,5.129c-1.781,1.414-3.672,1.457-5.801,1.479L62.743,72.126L62.743,72.126z M61.135,73.582h4.434
		c2.478,0,4.586-0.348,6.498-2.086c1.651-1.521,2.629-3.672,2.629-5.977c0-2.326-1.108-4.629-2.934-6.129
		c-1.847-1.479-3.998-1.848-6.302-1.869h-4.325V73.582z"/>
</g>
<path fill="#E45E28" d="M79.368,72.818h20.51V57.286h-20.51V72.818z M100.729,73.669H78.52V56.438h22.209V73.669z"/>
<g>
	<path fill="#E45E28" d="M80.264,61.159c0.205-0.255,0.715-0.366,1.235-0.236s2.993-0.606,3.86-0.909
		c0.867-0.305,3.947-1.043,4.857-1c0.911,0.045,2.748,0.215,5.205,1c1.128,0.389,1.605,0.432,1.909,0.432
		c0.303,0,0.867,0.174,0.867,0.479s-0.218,0.606-0.651,0.693s-1.214-0.043-2.298-0.391c-1.085-0.347-3.21-1.041-4.468-0.998
		s-3.426,0.304-5.553,0.998c-1.853,0.604-3.543,0.818-4.162,0.781C80.488,61.973,79.882,61.898,80.264,61.159"/>
	<path fill="#E45E28" d="M85.924,64.609c-0.607-0.26-1.084-0.174-0.52-0.998c1.084-0.391,3.078-1.344,4.771-1.258
		c1.691,0.088,3.296,0.823,3.816,1.041c0.521,0.217,0.911,0.347,0.217,0.693c-0.694,0.348-2.038,0.78-3.946,0.824
		S86.531,64.869,85.924,64.609 M97.418,65.867c-0.824-0.217-1.779,0.26-1.605,1.301s1.172,0.824,1.821,0.391
		c0.386,0.469,0.386,1.373-0.26,1.907c-0.88,0.733-2.606,0.865-4.034,0.175c-1.16-0.562-3.375-2.26-3.949-2.742
		c-0.494-0.416-0.406-0.994,1.607-1.03c1.609-0.029,4.034-1.171,4.771-1.431c0.737-0.262,1.864-0.393,2.256-0.781
		c0.391-0.391,0.043-0.868-0.694-0.824c-0.737,0.043-2.819-0.562-5.335-1.215c-2.516-0.65-5.508,0.564-6.896,0.998
		c-1.388,0.433-2.949,0.562-3.6,0.433c-0.434-0.043-1.389-0.26-1.389,0.563c0,0.826,1.259,0.608,1.865,0.564
		c0.607-0.044,1.129,0.131,1.519,0.823c0.392,0.694-0.173,1.692-0.435,2.212c-0.26,0.521-0.217,0.693,0.564,1.128
		s1.995,2.082,2.949,3.558c0.304-0.65-0.043-2.732-0.26-3.558c-0.217-0.823-0.824-1.258-0.955-1.864
		c-0.129-0.606,0.709-0.773,1.302-0.478c0.608,0.305,3.989,3.036,5.682,4.164c1.692,1.127,3.783,1.032,4.818,0.485
		c1.032-0.545,1.627-1.537,1.688-2.654C98.912,66.846,98.242,66.084,97.418,65.867"/>
	<path fill="#E45E28" d="M88.525,62.396C88.83,63.698,89.09,65.043,90,65c0.912-0.044,1.346-1.604,1.475-2.646
		C90.262,62.225,89.221,62.18,88.525,62.396"/>
</g>
</svg>
