<?xml version="1.0" encoding="utf-8"?>
<!-- Generator: Adobe Illustrator 16.0.0, SVG Export Plug-In . SVG Version: 6.00 Build 0)  -->
<!DOCTYPE svg PUBLIC "-//W3C//DTD SVG 1.1//EN" "http://www.w3.org/Graphics/SVG/1.1/DTD/svg11.dtd">
<svg version="1.1" id="ucla_ece" xmlns="http://www.w3.org/2000/svg" xmlns:xlink="http://www.w3.org/1999/xlink" x="0px" y="0px"
	 width="100.982px" height="45.385px" viewBox="0 0 100.982 45.385" enable-background="new 0 0 100.982 45.385"
	 xml:space="preserve">
<g>
	<path fill="#00588A" d="M36.429,4.176c0.01-0.062,0.049-0.082,0.115-0.058L64.572,14.32c0.068,0.035,0.102,0.08,0.102,0.136v6.296
		c0,0.067-0.033,0.088-0.102,0.064l-20.934-7.62v10.833l20.934,7.62c0.068,0.035,0.102,0.08,0.102,0.136v6.297
		c0,0.066-0.033,0.087-0.102,0.063L36.544,27.943c-0.078-0.028-0.115-0.075-0.115-0.142V4.176z"/>
	<path fill="#00588A" d="M66.333,14.456c0.012-0.07,0.051-0.118,0.117-0.143L94.48,4.112c0.066-0.013,0.1,0.009,0.1,0.063v6.297
		c0,0.066-0.033,0.112-0.1,0.136l-20.936,7.619v2.193l20.936-7.62c0.066-0.013,0.1,0.009,0.1,0.064v6.296
		c0,0.067-0.033,0.112-0.1,0.136l-20.936,7.62v2.143l20.936-7.619c0.066-0.014,0.1,0.008,0.1,0.064v6.295
		c0,0.067-0.033,0.112-0.1,0.137L66.451,38.139c-0.078,0.029-0.117,0.009-0.117-0.057V14.456z"/>
	<path fill="#00588A" d="M6.275,14.458c0.012-0.07,0.051-0.118,0.117-0.142L34.421,4.113c0.066-0.012,0.098,0.009,0.098,0.063v6.297
		c0,0.066-0.031,0.112-0.098,0.135l-20.935,7.62v2.193l20.935-7.62c0.066-0.013,0.098,0.008,0.098,0.064v6.297
		c0,0.066-0.031,0.111-0.098,0.135l-20.935,7.62v2.144l20.935-7.62c0.066-0.013,0.098,0.009,0.098,0.064v6.296
		c0,0.067-0.031,0.112-0.098,0.136L6.393,38.14c-0.079,0.028-0.117,0.009-0.117-0.057V14.458z"/>
</g>
</svg>
