<?xml version="1.0" encoding="utf-8"?>
<!-- Generator: Adobe Illustrator 16.0.0, SVG Export Plug-In . SVG Version: 6.00 Build 0)  -->
<!DOCTYPE svg PUBLIC "-//W3C//DTD SVG 1.1//EN" "http://www.w3.org/Graphics/SVG/1.1/DTD/svg11.dtd">
<svg version="1.1" id="Layer_1" xmlns="http://www.w3.org/2000/svg" xmlns:xlink="http://www.w3.org/1999/xlink" x="0px" y="0px"
	 width="489.959px" height="218.525px" viewBox="0 0 489.959 218.525" enable-background="new 0 0 489.959 218.525"
	 xml:space="preserve">
<g>
	<path fill="#FFFFFF" d="M169.021,16.12c0.052-0.331,0.262-0.445,0.617-0.309L319.931,70.52c0.365,0.189,0.556,0.433,0.556,0.729
		v33.756c0,0.366-0.181,0.476-0.556,0.352L207.67,64.49v58.098l112.261,40.863c0.365,0.189,0.556,0.427,0.556,0.726v33.767
		c0,0.36-0.181,0.475-0.556,0.336L169.638,143.57c-0.422-0.146-0.617-0.406-0.617-0.769V16.12z"/>
	<path fill="#FFFFFF" d="M329.396,71.25c0.057-0.37,0.266-0.626,0.614-0.759l150.31-54.708c0.354-0.071,0.545,0.052,0.545,0.336
		v33.767c0,0.352-0.181,0.607-0.545,0.73L368.049,91.469v11.764L480.32,62.365c0.354-0.062,0.545,0.057,0.545,0.346v33.763
		c0,0.359-0.181,0.603-0.545,0.729L368.049,138.07v11.482l112.271-40.858c0.354-0.07,0.545,0.048,0.545,0.347v33.756
		c0,0.355-0.181,0.599-0.545,0.735l-150.31,54.703c-0.405,0.161-0.614,0.053-0.614-0.304V71.25z"/>
	<path fill="#FFFFFF" d="M7.326,71.264c0.062-0.374,0.27-0.641,0.625-0.764l150.308-54.712c0.346-0.062,0.517,0.047,0.517,0.341
		v33.767c0,0.352-0.161,0.598-0.517,0.721L45.994,91.475v11.758l112.265-40.858c0.346-0.072,0.517,0.047,0.517,0.342v33.771
		c0,0.354-0.161,0.594-0.517,0.727L45.994,138.071v11.503l112.265-40.869c0.346-0.071,0.517,0.047,0.517,0.337v33.768
		c0,0.354-0.161,0.597-0.517,0.726L7.952,198.24c-0.422,0.156-0.625,0.053-0.625-0.309L7.326,71.264L7.326,71.264z"/>
</g>
</svg>
