<!-- Generator: Adobe Illustrator 23.1.0, SVG Export Plug-In  -->
<svg version="1.1" xmlns="http://www.w3.org/2000/svg" xmlns:xlink="http://www.w3.org/1999/xlink" x="0px" y="0px" width="80px"
	 height="80px" viewBox="0 0 80 80" style="enable-background:new 0 0 80 80;" xml:space="preserve">
<style type="text/css">
	.st0{fill:#007934;}
</style>
<defs>
</defs>
<path class="st0" d="M49.9,33.9l-1.8,10h3.6L49.9,33.9z M62.9,40.1l0.4-0.2l0.3-0.3l0.2-0.4l0.1-0.7v-3.7l-0.1-0.7l-0.2-0.4
	l-0.3-0.3l-0.4-0.2l-0.5-0.1h-2.2v6.9h2.2L62.9,40.1z M40,0C17.9,0,0,17.9,0,40s17.9,40,40,40s40-17.9,40-40S62.1,0,40,0z
	 M57.3,30.8h6.1l1.1,0.2l0.4,0.2l0.4,0.2l0.3,0.2l0.3,0.4l0.3,0.3l0.2,0.5l0.1,0.5l0.1,0.5l0.2,1.3v3.3l-0.2,1.3l-0.1,0.5l-0.1,0.5
	l-0.2,0.5l-0.3,0.3l-0.3,0.3L65.3,42l-0.4,0.2l-0.4,0.2l-1.1,0.2h-3.3v9h-2.9V30.8z M48.4,30.8h3.4L56,51.6h-2.9l-1-5.2h-4.5l-1,5.2
	h-2.9L48.4,30.8z M35.3,46.7L35.3,46.7L38,30.8h4.5v20.7h-2.6V32.9h-0.1l-3,18.7h-2.9l-3.2-18.7h-0.1v18.7h-2.5V30.8h4.6L35.3,46.7z
	 M24.3,10.2c3.1,0,5.6,2.5,5.6,5.5c0,3.1-2.5,5.5-5.6,5.5c-3.1,0-5.6-2.5-5.6-5.5C18.7,12.7,21.2,10.2,24.3,10.2z M16,60.1l0.1,0.4
	l0.1,0.3l0.2,0.2l0.2,0.2l0.3,0.1h0.2l0.3,0.1l0.6-0.1l0.5-0.2l0.5-0.2l0.6-0.3l1-0.9l1-1l1-1.2l0.8-1.1l0.7-1l0.4-0.8l1.2,0.7
	l-0.9,1.4l-1.1,1.5l-1.2,1.4l-1.2,1.3l-0.8,0.7l-0.7,0.6L18.6,63l-0.8,0.4L17,63.7l-0.9,0.2l-1,0.2l-1,0.1L13,64.1l-1.2-0.2
	l-0.9-0.3L10,63.3l-0.6-0.5l-0.7-0.6l-0.5-0.6L7.8,61l-0.3-0.6l-0.2-0.6l-0.2-0.6l-0.1-0.5L7,58v-1.5l0.1-0.6l0.2-0.6l0.1-0.5
	L7.5,54l0.2-0.6l0.2-0.6L15,29.9h-5l0.3-1.4h9.6l1.2-0.1l1.1-0.2l0.9-0.2l0.9-0.3l0.8-0.3l0.6-0.3l0.7-0.4l-8.7,28.5L17,55.9
	l-0.1,0.6l-0.2,0.7l-0.2,0.6l-0.2,0.6l-0.1,0.5L16,59.2l0,0.4L16,60.1z M76.4,54.9H28v-1.7h48.3V54.9z M77.2,47.8l-0.2,1L77,49.3
	l-0.2,0.5l-0.2,0.4l-0.3,0.3L76,50.7L75.6,51l-0.4,0.3l-0.4,0.2l-0.4,0.2l-0.6,0.1l-0.6,0.1h-1.6l-0.9-0.2L70,51.3l-0.5-0.4
	l-0.6-0.5l-0.4-0.7L68.4,49l-0.1-1v-2.4h2.9v2.1l0.1,0.5l0.1,0.4l0.1,0.3l0.2,0.2l0.2,0.2l0.4,0.1l0.4,0.1l0.5-0.1l0.5-0.1l0.3-0.2
	l0.2-0.2l0.2-0.4l0.1-0.4l0-0.5v-1.2l0-0.5l-0.2-0.6l-0.2-0.5l-0.3-0.5l-0.6-0.7l-0.7-0.9l-1-1L71,41.2l-0.7-0.8l-0.6-0.7L69.2,39
	l-0.4-0.8l-0.4-0.8l-0.2-1l0-1l0-1.2l0.2-0.8l0.2-0.6l0.2-0.4l0.2-0.4l0.3-0.3l0.3-0.3l0.3-0.2l0.4-0.2l0.4-0.2l1-0.2l1.1-0.1h0.6
	l0.5,0.1l0.5,0.1l0.5,0.1l0.3,0.2l0.4,0.2l0.3,0.3l0.2,0.2l0.2,0.2l0,0.2l0.2,0.3l0.1,0.3l0,0.3l0.1,0.4v0.5l0.1,0.6v1.9h-2.8v-2.1
	L74.3,34l-0.1-0.4L74,33.3l-0.2-0.2L73.5,33l-0.3-0.1l-0.4-0.1l-0.5,0.1L72.1,33l-0.3,0.1l-0.3,0.3l-0.1,0.3l-0.1,0.4l-0.1,0.5v1.1
	l0.1,0.5l0.1,0.6l0.3,0.5l0.3,0.5l0.6,0.7l0.7,0.9l0.9,1l1,1l0.7,0.9l0.6,0.8l0.5,0.8l0.3,0.7l0.2,0.8l0.1,0.8v0.9L77.2,47.8z"/>
</svg>
