<?xml version="1.0" encoding="utf-8"?>
<!-- Generator: Adobe Illustrator 16.0.0, SVG Export Plug-In . SVG Version: 6.00 Build 0)  -->
<!DOCTYPE svg PUBLIC "-//W3C//DTD SVG 1.1//EN" "http://www.w3.org/Graphics/SVG/1.1/DTD/svg11.dtd">
<svg version="1.1" id="Layer_1" xmlns="http://www.w3.org/2000/svg" xmlns:xlink="http://www.w3.org/1999/xlink" x="0px" y="0px"
	 width="706px" height="164px" viewBox="-158.5 459 706 164" enable-background="new -158.5 459 706 164" xml:space="preserve">
<g>
	<polygon fill="#006BAD" points="-98.71,484.398 -105.825,499.775 -115.951,484.675 -115.674,484.398 -127.991,484.398 
		-142.496,515.437 -130.181,515.437 -122.794,499.505 -112.119,515.437 -100.897,515.437 -86.396,484.398 	"/>
	<polygon fill="#006BAD" points="-142.496,515.437 -127.991,484.123 -115.951,484.123 -105.825,499.775 -98.439,484.123 
		-86.396,484.123 -100.897,515.437 -112.119,515.437 -122.794,499.505 -130.181,515.437 	"/>
	<polygon fill="#006BAD" points="457.667,515.437 472.172,484.123 483.937,484.123 494.338,499.775 501.452,484.123 
		513.768,484.123 499.262,515.437 487.774,515.437 477.373,499.505 469.705,515.437 	"/>
	<path fill="#006BAD" d="M235.717,514.336c-2.464,0.554-3.831,0.827-6.564,1.101c-3.014,0.273-4.927,0.273-7.387,0.273
		c-2.464,0-4.381-0.273-6.294-0.55c-1.92-0.55-3.557-1.101-4.931-1.924c-2.463-1.647-3.83-3.568-4.377-5.763
		c-0.824-2.475-0.273-4.949,0.82-7.967c1.094-2.198,2.46-4.396,4.381-6.32c1.644-1.921,4.107-3.568,6.564-5.216
		c2.737-1.374,5.751-2.475,8.484-3.295c3.01-0.829,6.021-1.101,9.305-1.101c2.464,0,4.65,0.271,6.844,0.549
		c1.914,0.552,4.107,1.101,6.021,1.924l-3.288,7.419c-1.64-0.828-3.28-1.374-4.92-1.928c-1.647-0.273-3.287-0.547-5.201-0.547
		c-3.288,0-6.294,0.824-9.035,2.194c-2.737,1.655-4.654,3.849-5.748,6.32c-1.101,2.471-1.093,4.666,0,6.043
		c1.367,1.651,3.28,2.471,6.021,2.471c0.547,0,1.097,0,1.647-0.273c0.547,0,0.547,0,1.09-0.273l1.917-3.572h-4.927l3.553-6.316
		h13.962L235.717,514.336L235.717,514.336z"/>
	<path fill="#006BAD" d="M164.29,489.891h2.735c1.917,0,3.288,0.271,4.108,1.101c0.546,0.547,0.546,1.647-0.271,3.021
		c-0.549,1.647-1.642,2.748-3.014,3.295c-1.094,0.824-3.009,1.101-5.197,1.101h-2.464L164.29,489.891L164.29,489.891z
		 M152.523,515.437l5.201-11.266h4.104c5.47,0,9.851-0.82,13.408-2.468c3.557-1.928,6.298-4.396,7.665-7.69
		c1.64-3.295,1.367-5.768-0.547-7.417c-2.194-1.649-5.751-2.473-11.225-2.473h-16.967l-14.501,31.313H152.523L152.523,515.437z"/>
	<polygon fill="#006BAD" points="16.508,515.437 31.559,484.123 44.695,484.123 39.221,495.66 52.906,495.66 58.375,484.123 
		71.789,484.123 56.739,515.437 43.329,515.437 48.803,503.897 35.391,503.897 29.645,515.437 	"/>
	<polygon fill="#006BAD" points="-9.219,515.437 2.003,492.088 -9.219,492.088 -5.384,484.123 29.917,484.123 25.813,492.088 
		14.591,492.088 3.097,515.437 	"/>
	<path fill="#006BAD" d="M-73.804,494.56c1.917-1.101,4.104-1.921,6.294-1.921c2.19,0,3.555,0.82,4.648,1.921
		c0.82,1.37,0.82,3.021,0,5.216c-0.822,1.928-2.458,3.575-4.377,4.949c-1.917,1.378-4.104,1.921-6.294,1.921
		c-2.188,0-3.555-0.547-4.648-1.921c-0.824-1.374-0.824-3.021,0-4.949C-77.359,497.581-75.721,495.934-73.804,494.56L-73.804,494.56
		z M-92.141,506.099c0,1.921,0.822,3.568,2.19,5.216c1.365,1.647,3.006,2.748,5.201,3.568c1.913,0.554,4.377,1.101,7.388,1.101
		c2.733,0,5.749-0.551,8.479-1.101c2.739-0.824,5.475-1.921,7.94-3.568c2.739-1.647,4.929-3.295,6.565-5.216
		c1.919-1.928,3.284-4.122,4.377-6.323c0.824-2.468,1.368-4.666,1.097-6.59c0-1.921-0.825-3.568-2.19-5.216
		c-1.093-1.374-3.01-2.475-4.923-3.295c-2.19-0.829-4.652-1.101-7.665-1.101c-2.737,0-5.75,0.271-8.479,1.101
		c-2.743,0.82-5.474,1.921-7.94,3.295c-2.739,1.647-4.929,3.295-6.846,5.216c-1.642,1.924-3.007,4.122-4.104,6.59
		C-91.864,501.977-92.413,504.171-92.141,506.099L-92.141,506.099z"/>
	<path fill="#006BAD" d="M121.326,494.56c1.914-1.101,4.104-1.921,6.294-1.921c2.187,0,3.551,0.82,4.377,1.921
		c1.097,1.37,1.097,3.021,0.271,5.216c-1.097,1.928-2.462,3.575-4.375,4.949c-1.918,1.374-4.109,1.921-6.294,1.921
		c-2.194,0-3.836-0.547-4.652-1.921c-0.818-1.374-0.822-3.021,0-4.949C117.763,497.581,119.132,495.934,121.326,494.56
		L121.326,494.56z M102.984,506.099c0,1.921,0.826,3.568,2.19,5.216c1.093,1.647,3.011,2.748,4.929,3.568
		c2.187,0.554,4.649,1.101,7.659,1.101c2.739,0,5.472-0.551,8.484-1.101c2.737-0.824,5.472-1.921,7.938-3.568
		c2.735-1.647,4.926-3.295,6.567-5.216c1.914-1.928,3.282-4.122,4.379-6.323c0.822-2.468,1.367-4.666,1.093-6.59
		c0-1.921-0.82-3.568-2.19-5.216c-1.369-1.374-3.011-2.475-5.201-3.295c-1.917-0.829-4.648-1.101-7.389-1.101
		c-3.009,0-5.746,0.271-8.481,1.101c-2.739,0.82-5.474,1.921-7.939,3.295c-2.739,1.647-4.924,3.295-6.843,5.216
		c-1.646,1.924-3.011,4.122-4.104,6.59C102.984,501.977,102.713,504.171,102.984,506.099L102.984,506.099z"/>
	<path fill="#006BAD" d="M291.275,484.123h12.862l-7.661,16.753c-1.093,2.201-1.367,3.853-0.55,4.949
		c0.55,1.097,1.917,1.655,4.381,1.655c2.183,0,4.104-0.554,5.744-1.655c1.647-1.097,3.014-2.748,3.834-4.949l7.661-16.753h12.861
		l-7.661,17.034c-2.187,4.946-5.748,8.51-10.125,10.985c-4.381,2.468-9.852,3.842-16.426,3.842c-6.291,0-10.667-1.371-12.858-3.842
		c-2.19-2.475-2.19-6.043,0-10.985L291.275,484.123L291.275,484.123z"/>
	<path fill="#006BAD" d="M445.082,492.365l-0.273,11.806h-10.675L445.082,492.365L445.082,492.365z M423.729,515.437l4.928-5.496
		h16.152v5.496h12.315l-1.647-31.313h-13.135l-31.201,31.313H423.729L423.729,515.437z"/>
	<path fill="#006BAD" d="M-11.134,486.324c-2.19-1.649-6.021-2.201-11.767-2.201h-17.516l-14.505,31.313h12.86l6.298-13.187h3.552
		c3.286,0.277,4.379,4.122,4.379,10.438c0,0.554,0,1.651,0,2.752h12.316l-0.548-9.888c0-1.093-0.273-2.749-0.822-3.568
		c-0.271-0.55-1.097-1.101-1.646-1.374c2.19-0.828,3.284-1.647,4.926-3.021c1.372-1.097,2.465-2.748,3.287-4.396
		C-8.947,490.162-9.219,487.97-11.134,486.324L-11.134,486.324z M-22.352,493.739c-0.273,1.101-1.642,2.194-3.01,2.749
		c-1.097,0.55-3.833,1.097-6.294,1.097h-2.462l4.104-8.516h2.462c2.19,0,3.836,0.552,4.652,1.097
		C-22.352,490.718-21.807,492.088-22.352,493.739L-22.352,493.739z"/>
	<path fill="#006BAD" d="M104.63,486.324c-2.188-1.649-6.021-2.201-11.766-2.201H75.619l-14.773,31.313h12.86L80,502.25h3.556
		c3.283,0.277,4.648,4.122,4.648,10.438c0,0.554-0.273,1.651-0.273,2.752h12.317l-0.273-9.888c-0.271-1.093-0.548-2.749-1.093-3.568
		c-0.271-0.55-0.82-1.101-1.64-1.374c2.185-0.828,3.551-1.647,4.924-3.021c1.369-1.097,2.462-2.748,3.284-4.396
		C106.817,490.162,106.545,487.97,104.63,486.324L104.63,486.324z M93.408,493.739c-0.273,1.101-1.642,2.194-3.01,2.749
		c-1.093,0.55-3.832,1.097-6.022,1.097h-2.737l4.107-8.516h2.458c2.19,0,4.107,0.552,4.652,1.097
		C93.68,490.718,93.957,492.088,93.408,493.739L93.408,493.739z"/>
	<path fill="#006BAD" d="M283.067,486.324c-1.921-1.649-5.751-2.201-11.769-2.201h-17.242l-14.782,31.313h13.142l6.294-13.187h3.553
		c3.284,0.277,4.377,4.122,4.377,10.438c0,0.554,0,1.651,0,2.752h12.319l-0.55-9.888c0-1.093-0.55-2.749-0.824-3.568
		c-0.27-0.55-1.094-1.101-1.64-1.374c2.187-0.828,3.284-1.647,4.647-3.021c1.647-1.097,2.74-2.748,3.287-4.396
		C285.527,490.162,285.254,487.97,283.067,486.324L283.067,486.324z M272.115,493.739c-0.273,1.101-1.917,2.194-3.01,2.749
		c-1.093,0.55-3.834,1.097-6.294,1.097h-2.46l4.107-8.516h2.46c2.187,0,3.83,0.552,4.646,1.097
		C272.115,490.718,272.666,492.088,272.115,493.739L272.115,493.739z"/>
	<polygon fill="#006BAD" points="319.185,515.437 333.694,484.123 345.735,484.123 349.839,496.484 364.891,484.123 
		376.933,484.123 362.427,515.437 350.112,515.437 358.324,497.581 342.995,510.217 339.168,498.131 331.23,515.437 	"/>
	<polygon fill="#006BAD" points="365.984,515.437 380.767,484.123 392.801,484.123 396.639,496.484 411.691,484.123 
		424.006,484.123 409.497,515.437 396.908,515.437 405.396,497.581 390.067,510.217 386.237,498.131 378.026,515.437 	"/>
	<path fill="none" stroke="#006BAD" stroke-width="0.273" stroke-miterlimit="2.6131" d="M-75.721,598.391
		c119.594-84.602,479.747-72.242,597.973-72.789"/>
</g>
</svg>
