<?xml version="1.0" encoding="utf-8"?>
<!-- Generator: Adobe Illustrator 16.0.0, SVG Export Plug-In . SVG Version: 6.00 Build 0)  -->
<!DOCTYPE svg PUBLIC "-//W3C//DTD SVG 1.1//EN" "http://www.w3.org/Graphics/SVG/1.1/DTD/svg11.dtd">
<svg version="1.1" id="Layer_1" xmlns="http://www.w3.org/2000/svg" xmlns:xlink="http://www.w3.org/1999/xlink" x="0px" y="0px"
	 width="496.5px" height="123.5px" viewBox="0 0 496.5 123.5" enable-background="new 0 0 496.5 123.5" xml:space="preserve">
<g>
	<path fill="#005CA6" d="M90.536,52.827c0-21.697-17.653-39.35-39.35-39.35c-21.697,0-39.35,17.651-39.35,39.35
		c0,21.697,17.653,39.35,39.35,39.35c2.829,0,5.588-0.316,8.252-0.886v8.69c0,1.897,1.554,3.45,3.45,3.45h3.45
		c1.896,0,3.447-1.553,3.447-3.45v-12.49C82.125,80.84,90.536,67.799,90.536,52.827L90.536,52.827z M69.783,75.054V60.527
		l-10.347,3.365v16.726c-2.621,0.776-5.384,1.214-8.252,1.214c-15.992,0-29.003-13.011-29.003-29.005c0-15.992,13.009-29,29.003-29
		c15.994,0,29.005,13.009,29.005,29C80.186,61.741,76.138,69.726,69.783,75.054L69.783,75.054z"/>
	<path fill="#005CA6" d="M434.559,24.143c-0.885,1.679-2.335,4.423-3.226,6.099l-10.371,19.619c-0.889,1.676-2.336,1.676-3.229,0
		l-14.97-28.316c-0.889-1.677-2.333-1.677-3.214,0.007L384.757,49.81c-0.88,1.681-2.326,1.684-3.214,0.007l-14.921-28.231
		c-0.891-1.674-2.338-1.674-3.229,0l-14.943,28.273c-0.891,1.676-2.338,1.676-3.229,0l-15.371-29.076
		c-0.888-1.676-2.241-1.63-3.005,0.107l-19.702,44.736c-0.766,1.737,0.029,3.788,1.764,4.55l3.16,1.387
		c1.735,0.766,3.786-0.029,4.547-1.766l11.08-25.162c0.764-1.737,2.117-1.786,3.005-0.107l14.522,27.475
		c0.888,1.674,2.335,1.674,3.229,0l14.943-28.278c0.888-1.676,2.335-1.676,3.229,0l14.97,28.316
		c0.888,1.679,2.335,1.679,3.214-0.005l14.794-28.258c0.878-1.684,2.323-1.686,3.209-0.005l14.924,28.231
		c0.89,1.674,2.338,1.674,3.229,0l14.521-27.47c0.889-1.679,2.241-1.627,3.005,0.107l11.077,25.156
		c0.764,1.737,2.812,2.533,4.547,1.767l3.16-1.387c1.735-0.764,2.53-2.812,1.765-4.55l-19.7-44.736
		c-0.764-1.737-2.116-1.783-3.004-0.107L434.559,24.143L434.559,24.143z"/>
	<path fill="#005CA6" d="M186.178,65.035L164.968,20.8c-0.822-1.71-2.163-1.71-2.983,0l-1.684,3.511
		c-0.82,1.712-2.16,4.51-2.982,6.218l-16.544,34.506c-0.822,1.71-0.092,3.783,1.62,4.606l3.109,1.484
		c1.71,0.822,3.781,0.092,4.603-1.613l4.555-9.498h17.633l4.555,9.498c0.822,1.708,2.893,2.438,4.603,1.613l3.109-1.484
		C186.271,68.816,187,66.743,186.178,65.035L186.178,65.035z M156.959,51.886l5.026-12.717c0.822-1.708,2.161-1.708,2.983,0
		l4.778,12.717H156.959L156.959,51.886z"/>
	<path fill="#005CA6" d="M226.054,71.113l-6.734-10.345h-13.958c-1.897,0-3.45-1.555-3.45-3.45V27.15c0-1.898-1.555-3.45-3.45-3.45
		h-3.45c-1.897,0-3.452,1.552-3.452,3.45v40.515c0,1.897,1.555,3.45,3.452,3.45h31.042V71.113z"/>
	<path fill="#005CA6" d="M252.592,46.721c0,14.295,11.632,25.925,25.925,25.925c14.296,0,25.925-11.629,25.925-25.925
		c0-14.296-11.629-25.925-25.925-25.925C264.224,20.798,252.592,32.425,252.592,46.721L252.592,46.721z M262.939,46.721
		c0-8.591,6.99-15.576,15.578-15.576s15.576,6.985,15.576,15.576c0,8.593-6.987,15.578-15.576,15.578S262.939,55.313,262.939,46.721
		L262.939,46.721z"/>
	<path fill="#005CA6" d="M228.056,46.667c0-9.381,6.077-14.191,22.446-14.191l0.363-0.005c1.902,0,3.45-1.367,3.45-3.267v-3.448
		c0-1.895-1.547-3.299-3.45-3.299l-0.363-0.005c-30.19,0-32.472,15.193-32.472,24.212c0,9.021,2.282,24.215,32.472,24.215
		l0.363-0.005c1.902,0,3.45-1.401,3.45-3.299v-3.45c0-1.9-1.547-3.268-3.45-3.268l-0.363-0.005
		C234.136,60.855,228.056,56.043,228.056,46.667L228.056,46.667z"/>
	<path fill="#005CA6" d="M128.776,23.433c-1.898,0-3.453,1.555-3.453,3.45v30.436c0,1.895-1.552,3.45-3.45,3.45h-8.323
		c-1.898,0-3.45-1.555-3.45-3.45V26.882c0-1.895-1.555-3.45-3.452-3.45h-3.45c-1.896,0-3.45,1.555-3.45,3.45v40.783
		c0,1.897,1.555,3.45,3.45,3.45h29.024c1.896,0,3.447-1.552,3.447-3.45V26.882c0-1.895-1.555-3.45-3.447-3.45H128.776
		L128.776,23.433z"/>
	<path fill="#005CA6" d="M457.151,26.26c0-5.392,4.056-9.457,9.27-9.457c5.147,0,9.211,4.065,9.211,9.457
		c0,5.474-4.063,9.515-9.211,9.515C461.207,35.775,457.151,31.731,457.151,26.26L457.151,26.26z M466.421,37.667
		c6.198,0,11.5-4.819,11.5-11.41c0-6.538-5.302-11.352-11.5-11.352c-6.271,0-11.562,4.817-11.562,11.352
		C454.859,32.851,460.15,37.667,466.421,37.667L466.421,37.667z M464.01,27.157h2.289l3.465,5.691h2.229l-3.732-5.783
		c1.925-0.238,3.398-1.263,3.398-3.61c0-2.588-1.53-3.735-4.63-3.735h-5.004v13.128h1.987v-5.691H464.01z M464.01,25.472v-4.065
		h2.713c1.382,0,2.858,0.304,2.858,1.927c0,2.014-1.506,2.136-3.188,2.136h-2.384V25.472z"/>
</g>
</svg>
