<?xml version="1.0" encoding="utf-8"?>
<!-- Generator: Adobe Illustrator 16.0.0, SVG Export Plug-In . SVG Version: 6.00 Build 0)  -->
<!DOCTYPE svg PUBLIC "-//W3C//DTD SVG 1.1//EN" "http://www.w3.org/Graphics/SVG/1.1/DTD/svg11.dtd">
<svg version="1.1" id="Layer_1" xmlns="http://www.w3.org/2000/svg" xmlns:xlink="http://www.w3.org/1999/xlink" x="0px" y="0px"
	 width="517.5px" height="120.5px" viewBox="0 0 517.5 120.5" enable-background="new 0 0 517.5 120.5" xml:space="preserve">
<g>
	<path fill="#EB5C39" d="M45.92,84.595V57.822h-5.628v26.772h-29.3V13.698h41.828c15.513,0,22.516,7.701,22.516,18.96
		c0,8.044-4.709,13.673-9.765,16.089c5.173,1.724,9.882,6.433,9.882,15.969v19.879H45.92L45.92,84.595z M45.92,27.832h-5.628v15.745
		h5.628V27.832L45.92,27.832z"/>
	<path fill="#EB5C39" d="M107.594,70.576V59.428h5.863v11.147H107.594L107.594,70.576z M139.998,48.286
		c0-12.407-8.732-20.226-29.876-19.994C94.15,28.407,82.201,32.89,82.201,47.367h25.393v-6.318h5.863v9.882
		c-22.292,0.232-33.552,0.69-33.552,18.385c0,10.34,5.975,16.083,16.891,16.083c6.089,0,12.979-1.492,18.038-7.008v6.207h25.164
		V48.286L139.998,48.286z"/>
	<polygon fill="#EB5C39" points="178.014,104.242 152.045,104.242 159.285,84.595 138.375,30.013 165.145,30.013 172.614,60.121 
		180.541,30.013 207.202,30.013 	"/>
	<polygon fill="#EB5C39" points="229.254,45.873 229.254,84.595 201.677,84.595 201.677,13.698 229.254,13.698 229.254,30.013 
		238.218,30.013 238.218,45.873 	"/>
	<path fill="#EB5C39" d="M275.783,84.595V46.216h-5.86v38.378h-27.46V13.698h27.46v21.373c1.606-1.494,6.55-5.977,15.513-5.977
		c6.665,0,11.145,2.299,14.131,6.321c2.531,3.562,3.793,7.698,3.793,14.48v34.7H275.783L275.783,84.595z"/>
	<path fill="#EB5C39" d="M358.714,82.522c-6.779,3.446-14.365,3.793-20.22,3.793c-24.935,0-30.797-11.491-30.797-28.957
		c0-19.535,8.391-29.071,31.831-29.071c14.016,0,22.401,3.562,27.001,10.916c1.838,3.103,3.447,7.24,3.447,17.005
		c0,0,0,0.919,0,4.022h-34.012v12.751h5.86v-7.123h28.152C369.976,72.757,365.149,79.308,358.714,82.522L358.714,82.522z
		 M341.823,40.356h-5.86v10.34h5.86V40.356L341.823,40.356z"/>
	<path fill="#EB5C39" d="M433.161,74.712c-5.173,9.421-14.48,11.606-27.921,11.606c-13.561,0-22.982-2.185-28.038-11.606
		c-2.067-3.673-2.986-10.111-2.986-17.463c0-7.352,0.919-13.788,2.986-17.466c5.056-9.424,14.477-11.491,28.038-11.491
		c13.556,0,22.862,2.067,27.921,11.491c2.525,4.598,2.983,12.41,2.983,17.581C436.146,64.716,435.345,70.805,433.161,74.712
		L433.161,74.712z M408.229,41.393h-5.863v31.599h5.863V41.393L408.229,41.393z"/>
	<path fill="#EB5C39" d="M473.933,84.595V45.297h-5.86v39.297h-27.46V30.016h26.655v5.288c2.182-3.104,7.583-7.011,16.43-7.011
		c11.605-0.117,18.041,7.472,18.041,18.617v37.688h-27.806V84.595z"/>
</g>
</svg>
